<?xml version="1.0" encoding="utf-8" standalone="no"?>
<!DOCTYPE svg PUBLIC "-//W3C//DTD SVG 1.1//EN"
  "http://www.w3.org/Graphics/SVG/1.1/DTD/svg11.dtd">
<svg xmlns:xlink="http://www.w3.org/1999/xlink" width="1232.39952pt" height="512.39952pt" viewBox="0 0 1232.39952 512.39952" xmlns="http://www.w3.org/2000/svg" version="1.1">
 <metadata>
  <rdf:RDF xmlns:dc="http://purl.org/dc/elements/1.1/" xmlns:cc="http://creativecommons.org/ns#" xmlns:rdf="http://www.w3.org/1999/02/22-rdf-syntax-ns#">
   <cc:Work>
    <dc:type rdf:resource="http://purl.org/dc/dcmitype/StillImage"/>
    <dc:date>2022-12-23T16:22:57.056995</dc:date>
    <dc:format>image/svg+xml</dc:format>
    <dc:creator>
     <cc:Agent>
      <dc:title>Matplotlib v3.5.1, https://matplotlib.org/</dc:title>
     </cc:Agent>
    </dc:creator>
   </cc:Work>
  </rdf:RDF>
 </metadata>
 <defs>
  <style type="text/css">*{stroke-linejoin: round; stroke-linecap: butt}</style>
 </defs>
 <g id="figure_1">
  <g id="patch_1">
   <path d="M 0 512.39952 
L 1232.39952 512.39952 
L 1232.39952 0 
L 0 0 
L 0 512.39952 
z
" style="fill: none"/>
  </g>
  <g id="axes_1">
   <g id="patch_2">
    <path d="M 43.742188 463.645457 
L 456.569412 463.645457 
L 456.569412 22.318125 
L 43.742188 22.318125 
z
" style="fill: #ffffff"/>
   </g>
   <g id="matplotlib.axis_1">
    <g id="xtick_1">
     <g id="line2d_1">
      <defs>
       <path id="mae6404102a" d="M 0 0 
L 0 3.5 
" style="stroke: #000000; stroke-width: 0.8"/>
      </defs>
      <g>
       <use xlink:href="#mae6404102a" x="111.458906" y="463.645457" style="stroke: #000000; stroke-width: 0.8"/>
      </g>
     </g>
     <g id="text_1">
      <!-- 2020 -->
      <g transform="translate(98.733906 478.243895)scale(0.1 -0.1)">
       <defs>
        <path id="DejaVuSans-32" d="M 1228 531 
L 3431 531 
L 3431 0 
L 469 0 
L 469 531 
Q 828 903 1448 1529 
Q 2069 2156 2228 2338 
Q 2531 2678 2651 2914 
Q 2772 3150 2772 3378 
Q 2772 3750 2511 3984 
Q 2250 4219 1831 4219 
Q 1534 4219 1204 4116 
Q 875 4013 500 3803 
L 500 4441 
Q 881 4594 1212 4672 
Q 1544 4750 1819 4750 
Q 2544 4750 2975 4387 
Q 3406 4025 3406 3419 
Q 3406 3131 3298 2873 
Q 3191 2616 2906 2266 
Q 2828 2175 2409 1742 
Q 1991 1309 1228 531 
z
" transform="scale(0.015625)"/>
        <path id="DejaVuSans-30" d="M 2034 4250 
Q 1547 4250 1301 3770 
Q 1056 3291 1056 2328 
Q 1056 1369 1301 889 
Q 1547 409 2034 409 
Q 2525 409 2770 889 
Q 3016 1369 3016 2328 
Q 3016 3291 2770 3770 
Q 2525 4250 2034 4250 
z
M 2034 4750 
Q 2819 4750 3233 4129 
Q 3647 3509 3647 2328 
Q 3647 1150 3233 529 
Q 2819 -91 2034 -91 
Q 1250 -91 836 529 
Q 422 1150 422 2328 
Q 422 3509 836 4129 
Q 1250 4750 2034 4750 
z
" transform="scale(0.015625)"/>
       </defs>
       <use xlink:href="#DejaVuSans-32"/>
       <use xlink:href="#DejaVuSans-30" x="63.623047"/>
       <use xlink:href="#DejaVuSans-32" x="127.246094"/>
       <use xlink:href="#DejaVuSans-30" x="190.869141"/>
      </g>
     </g>
    </g>
    <g id="xtick_2">
     <g id="line2d_2">
      <g>
       <use xlink:href="#mae6404102a" x="193.045314" y="463.645457" style="stroke: #000000; stroke-width: 0.8"/>
      </g>
     </g>
     <g id="text_2">
      <!-- 2025 -->
      <g transform="translate(180.320314 478.243895)scale(0.1 -0.1)">
       <defs>
        <path id="DejaVuSans-35" d="M 691 4666 
L 3169 4666 
L 3169 4134 
L 1269 4134 
L 1269 2991 
Q 1406 3038 1543 3061 
Q 1681 3084 1819 3084 
Q 2600 3084 3056 2656 
Q 3513 2228 3513 1497 
Q 3513 744 3044 326 
Q 2575 -91 1722 -91 
Q 1428 -91 1123 -41 
Q 819 9 494 109 
L 494 744 
Q 775 591 1075 516 
Q 1375 441 1709 441 
Q 2250 441 2565 725 
Q 2881 1009 2881 1497 
Q 2881 1984 2565 2268 
Q 2250 2553 1709 2553 
Q 1456 2553 1204 2497 
Q 953 2441 691 2322 
L 691 4666 
z
" transform="scale(0.015625)"/>
       </defs>
       <use xlink:href="#DejaVuSans-32"/>
       <use xlink:href="#DejaVuSans-30" x="63.623047"/>
       <use xlink:href="#DejaVuSans-32" x="127.246094"/>
       <use xlink:href="#DejaVuSans-35" x="190.869141"/>
      </g>
     </g>
    </g>
    <g id="xtick_3">
     <g id="line2d_3">
      <g>
       <use xlink:href="#mae6404102a" x="274.631722" y="463.645457" style="stroke: #000000; stroke-width: 0.8"/>
      </g>
     </g>
     <g id="text_3">
      <!-- 2030 -->
      <g transform="translate(261.906722 478.243895)scale(0.1 -0.1)">
       <defs>
        <path id="DejaVuSans-33" d="M 2597 2516 
Q 3050 2419 3304 2112 
Q 3559 1806 3559 1356 
Q 3559 666 3084 287 
Q 2609 -91 1734 -91 
Q 1441 -91 1130 -33 
Q 819 25 488 141 
L 488 750 
Q 750 597 1062 519 
Q 1375 441 1716 441 
Q 2309 441 2620 675 
Q 2931 909 2931 1356 
Q 2931 1769 2642 2001 
Q 2353 2234 1838 2234 
L 1294 2234 
L 1294 2753 
L 1863 2753 
Q 2328 2753 2575 2939 
Q 2822 3125 2822 3475 
Q 2822 3834 2567 4026 
Q 2313 4219 1838 4219 
Q 1578 4219 1281 4162 
Q 984 4106 628 3988 
L 628 4550 
Q 988 4650 1302 4700 
Q 1616 4750 1894 4750 
Q 2613 4750 3031 4423 
Q 3450 4097 3450 3541 
Q 3450 3153 3228 2886 
Q 3006 2619 2597 2516 
z
" transform="scale(0.015625)"/>
       </defs>
       <use xlink:href="#DejaVuSans-32"/>
       <use xlink:href="#DejaVuSans-30" x="63.623047"/>
       <use xlink:href="#DejaVuSans-33" x="127.246094"/>
       <use xlink:href="#DejaVuSans-30" x="190.869141"/>
      </g>
     </g>
    </g>
    <g id="xtick_4">
     <g id="line2d_4">
      <g>
       <use xlink:href="#mae6404102a" x="356.218131" y="463.645457" style="stroke: #000000; stroke-width: 0.8"/>
      </g>
     </g>
     <g id="text_4">
      <!-- 2035 -->
      <g transform="translate(343.493131 478.243895)scale(0.1 -0.1)">
       <use xlink:href="#DejaVuSans-32"/>
       <use xlink:href="#DejaVuSans-30" x="63.623047"/>
       <use xlink:href="#DejaVuSans-33" x="127.246094"/>
       <use xlink:href="#DejaVuSans-35" x="190.869141"/>
      </g>
     </g>
    </g>
    <g id="xtick_5">
     <g id="line2d_5">
      <g>
       <use xlink:href="#mae6404102a" x="437.804539" y="463.645457" style="stroke: #000000; stroke-width: 0.8"/>
      </g>
     </g>
     <g id="text_5">
      <!-- 2040 -->
      <g transform="translate(425.079539 478.243895)scale(0.1 -0.1)">
       <defs>
        <path id="DejaVuSans-34" d="M 2419 4116 
L 825 1625 
L 2419 1625 
L 2419 4116 
z
M 2253 4666 
L 3047 4666 
L 3047 1625 
L 3713 1625 
L 3713 1100 
L 3047 1100 
L 3047 0 
L 2419 0 
L 2419 1100 
L 313 1100 
L 313 1709 
L 2253 4666 
z
" transform="scale(0.015625)"/>
       </defs>
       <use xlink:href="#DejaVuSans-32"/>
       <use xlink:href="#DejaVuSans-30" x="63.623047"/>
       <use xlink:href="#DejaVuSans-34" x="127.246094"/>
       <use xlink:href="#DejaVuSans-30" x="190.869141"/>
      </g>
     </g>
    </g>
    <g id="text_6">
     <!-- Year -->
     <g transform="translate(239.5683 503.119832)scale(0.1 -0.1)">
      <defs>
       <path id="DejaVuSans-59" d="M -13 4666 
L 666 4666 
L 1959 2747 
L 3244 4666 
L 3922 4666 
L 2272 2222 
L 2272 0 
L 1638 0 
L 1638 2222 
L -13 4666 
z
" transform="scale(0.015625)"/>
       <path id="DejaVuSans-65" d="M 3597 1894 
L 3597 1613 
L 953 1613 
Q 991 1019 1311 708 
Q 1631 397 2203 397 
Q 2534 397 2845 478 
Q 3156 559 3463 722 
L 3463 178 
Q 3153 47 2828 -22 
Q 2503 -91 2169 -91 
Q 1331 -91 842 396 
Q 353 884 353 1716 
Q 353 2575 817 3079 
Q 1281 3584 2069 3584 
Q 2775 3584 3186 3129 
Q 3597 2675 3597 1894 
z
M 3022 2063 
Q 3016 2534 2758 2815 
Q 2500 3097 2075 3097 
Q 1594 3097 1305 2825 
Q 1016 2553 972 2059 
L 3022 2063 
z
" transform="scale(0.015625)"/>
       <path id="DejaVuSans-61" d="M 2194 1759 
Q 1497 1759 1228 1600 
Q 959 1441 959 1056 
Q 959 750 1161 570 
Q 1363 391 1709 391 
Q 2188 391 2477 730 
Q 2766 1069 2766 1631 
L 2766 1759 
L 2194 1759 
z
M 3341 1997 
L 3341 0 
L 2766 0 
L 2766 531 
Q 2569 213 2275 61 
Q 1981 -91 1556 -91 
Q 1019 -91 701 211 
Q 384 513 384 1019 
Q 384 1609 779 1909 
Q 1175 2209 1959 2209 
L 2766 2209 
L 2766 2266 
Q 2766 2663 2505 2880 
Q 2244 3097 1772 3097 
Q 1472 3097 1187 3025 
Q 903 2953 641 2809 
L 641 3341 
Q 956 3463 1253 3523 
Q 1550 3584 1831 3584 
Q 2591 3584 2966 3190 
Q 3341 2797 3341 1997 
z
" transform="scale(0.015625)"/>
       <path id="DejaVuSans-72" d="M 2631 2963 
Q 2534 3019 2420 3045 
Q 2306 3072 2169 3072 
Q 1681 3072 1420 2755 
Q 1159 2438 1159 1844 
L 1159 0 
L 581 0 
L 581 3500 
L 1159 3500 
L 1159 2956 
Q 1341 3275 1631 3429 
Q 1922 3584 2338 3584 
Q 2397 3584 2469 3576 
Q 2541 3569 2628 3553 
L 2631 2963 
z
" transform="scale(0.015625)"/>
      </defs>
      <use xlink:href="#DejaVuSans-59"/>
      <use xlink:href="#DejaVuSans-65" x="47.833984"/>
      <use xlink:href="#DejaVuSans-61" x="109.357422"/>
      <use xlink:href="#DejaVuSans-72" x="170.636719"/>
     </g>
    </g>
   </g>
   <g id="matplotlib.axis_2">
    <g id="ytick_1">
     <g id="line2d_6">
      <defs>
       <path id="m72ed395774" d="M 0 0 
L -3.5 0 
" style="stroke: #000000; stroke-width: 0.8"/>
      </defs>
      <g>
       <use xlink:href="#m72ed395774" x="43.742188" y="463.645457" style="stroke: #000000; stroke-width: 0.8"/>
      </g>
     </g>
     <g id="text_7">
      <!-- 0% -->
      <g transform="translate(20.878125 467.444676)scale(0.1 -0.1)">
       <defs>
        <path id="DejaVuSans-25" d="M 4653 2053 
Q 4381 2053 4226 1822 
Q 4072 1591 4072 1178 
Q 4072 772 4226 539 
Q 4381 306 4653 306 
Q 4919 306 5073 539 
Q 5228 772 5228 1178 
Q 5228 1588 5073 1820 
Q 4919 2053 4653 2053 
z
M 4653 2450 
Q 5147 2450 5437 2106 
Q 5728 1763 5728 1178 
Q 5728 594 5436 251 
Q 5144 -91 4653 -91 
Q 4153 -91 3862 251 
Q 3572 594 3572 1178 
Q 3572 1766 3864 2108 
Q 4156 2450 4653 2450 
z
M 1428 4353 
Q 1159 4353 1004 4120 
Q 850 3888 850 3481 
Q 850 3069 1003 2837 
Q 1156 2606 1428 2606 
Q 1700 2606 1854 2837 
Q 2009 3069 2009 3481 
Q 2009 3884 1853 4118 
Q 1697 4353 1428 4353 
z
M 4250 4750 
L 4750 4750 
L 1831 -91 
L 1331 -91 
L 4250 4750 
z
M 1428 4750 
Q 1922 4750 2215 4408 
Q 2509 4066 2509 3481 
Q 2509 2891 2217 2550 
Q 1925 2209 1428 2209 
Q 931 2209 642 2551 
Q 353 2894 353 3481 
Q 353 4063 643 4406 
Q 934 4750 1428 4750 
z
" transform="scale(0.015625)"/>
       </defs>
       <use xlink:href="#DejaVuSans-30"/>
       <use xlink:href="#DejaVuSans-25" x="63.623047"/>
      </g>
     </g>
    </g>
    <g id="ytick_2">
     <g id="line2d_7">
      <g>
       <use xlink:href="#m72ed395774" x="43.742188" y="408.479541" style="stroke: #000000; stroke-width: 0.8"/>
      </g>
     </g>
     <g id="text_8">
      <!-- 1% -->
      <g transform="translate(20.878125 412.27876)scale(0.1 -0.1)">
       <defs>
        <path id="DejaVuSans-31" d="M 794 531 
L 1825 531 
L 1825 4091 
L 703 3866 
L 703 4441 
L 1819 4666 
L 2450 4666 
L 2450 531 
L 3481 531 
L 3481 0 
L 794 0 
L 794 531 
z
" transform="scale(0.015625)"/>
       </defs>
       <use xlink:href="#DejaVuSans-31"/>
       <use xlink:href="#DejaVuSans-25" x="63.623047"/>
      </g>
     </g>
    </g>
    <g id="ytick_3">
     <g id="line2d_8">
      <g>
       <use xlink:href="#m72ed395774" x="43.742188" y="353.313624" style="stroke: #000000; stroke-width: 0.8"/>
      </g>
     </g>
     <g id="text_9">
      <!-- 2% -->
      <g transform="translate(20.878125 357.112843)scale(0.1 -0.1)">
       <use xlink:href="#DejaVuSans-32"/>
       <use xlink:href="#DejaVuSans-25" x="63.623047"/>
      </g>
     </g>
    </g>
    <g id="ytick_4">
     <g id="line2d_9">
      <g>
       <use xlink:href="#m72ed395774" x="43.742188" y="298.147708" style="stroke: #000000; stroke-width: 0.8"/>
      </g>
     </g>
     <g id="text_10">
      <!-- 3% -->
      <g transform="translate(20.878125 301.946927)scale(0.1 -0.1)">
       <use xlink:href="#DejaVuSans-33"/>
       <use xlink:href="#DejaVuSans-25" x="63.623047"/>
      </g>
     </g>
    </g>
    <g id="ytick_5">
     <g id="line2d_10">
      <g>
       <use xlink:href="#m72ed395774" x="43.742188" y="242.981791" style="stroke: #000000; stroke-width: 0.8"/>
      </g>
     </g>
     <g id="text_11">
      <!-- 4% -->
      <g transform="translate(20.878125 246.78101)scale(0.1 -0.1)">
       <use xlink:href="#DejaVuSans-34"/>
       <use xlink:href="#DejaVuSans-25" x="63.623047"/>
      </g>
     </g>
    </g>
    <g id="ytick_6">
     <g id="line2d_11">
      <g>
       <use xlink:href="#m72ed395774" x="43.742188" y="187.815875" style="stroke: #000000; stroke-width: 0.8"/>
      </g>
     </g>
     <g id="text_12">
      <!-- 5% -->
      <g transform="translate(20.878125 191.615093)scale(0.1 -0.1)">
       <use xlink:href="#DejaVuSans-35"/>
       <use xlink:href="#DejaVuSans-25" x="63.623047"/>
      </g>
     </g>
    </g>
    <g id="ytick_7">
     <g id="line2d_12">
      <g>
       <use xlink:href="#m72ed395774" x="43.742188" y="132.649958" style="stroke: #000000; stroke-width: 0.8"/>
      </g>
     </g>
     <g id="text_13">
      <!-- 6% -->
      <g transform="translate(20.878125 136.449177)scale(0.1 -0.1)">
       <defs>
        <path id="DejaVuSans-36" d="M 2113 2584 
Q 1688 2584 1439 2293 
Q 1191 2003 1191 1497 
Q 1191 994 1439 701 
Q 1688 409 2113 409 
Q 2538 409 2786 701 
Q 3034 994 3034 1497 
Q 3034 2003 2786 2293 
Q 2538 2584 2113 2584 
z
M 3366 4563 
L 3366 3988 
Q 3128 4100 2886 4159 
Q 2644 4219 2406 4219 
Q 1781 4219 1451 3797 
Q 1122 3375 1075 2522 
Q 1259 2794 1537 2939 
Q 1816 3084 2150 3084 
Q 2853 3084 3261 2657 
Q 3669 2231 3669 1497 
Q 3669 778 3244 343 
Q 2819 -91 2113 -91 
Q 1303 -91 875 529 
Q 447 1150 447 2328 
Q 447 3434 972 4092 
Q 1497 4750 2381 4750 
Q 2619 4750 2861 4703 
Q 3103 4656 3366 4563 
z
" transform="scale(0.015625)"/>
       </defs>
       <use xlink:href="#DejaVuSans-36"/>
       <use xlink:href="#DejaVuSans-25" x="63.623047"/>
      </g>
     </g>
    </g>
    <g id="ytick_8">
     <g id="line2d_13">
      <g>
       <use xlink:href="#m72ed395774" x="43.742188" y="77.484042" style="stroke: #000000; stroke-width: 0.8"/>
      </g>
     </g>
     <g id="text_14">
      <!-- 7% -->
      <g transform="translate(20.878125 81.28326)scale(0.1 -0.1)">
       <defs>
        <path id="DejaVuSans-37" d="M 525 4666 
L 3525 4666 
L 3525 4397 
L 1831 0 
L 1172 0 
L 2766 4134 
L 525 4134 
L 525 4666 
z
" transform="scale(0.015625)"/>
       </defs>
       <use xlink:href="#DejaVuSans-37"/>
       <use xlink:href="#DejaVuSans-25" x="63.623047"/>
      </g>
     </g>
    </g>
    <g id="ytick_9">
     <g id="line2d_14">
      <g>
       <use xlink:href="#m72ed395774" x="43.742188" y="22.318125" style="stroke: #000000; stroke-width: 0.8"/>
      </g>
     </g>
     <g id="text_15">
      <!-- 8% -->
      <g transform="translate(20.878125 26.117344)scale(0.1 -0.1)">
       <defs>
        <path id="DejaVuSans-38" d="M 2034 2216 
Q 1584 2216 1326 1975 
Q 1069 1734 1069 1313 
Q 1069 891 1326 650 
Q 1584 409 2034 409 
Q 2484 409 2743 651 
Q 3003 894 3003 1313 
Q 3003 1734 2745 1975 
Q 2488 2216 2034 2216 
z
M 1403 2484 
Q 997 2584 770 2862 
Q 544 3141 544 3541 
Q 544 4100 942 4425 
Q 1341 4750 2034 4750 
Q 2731 4750 3128 4425 
Q 3525 4100 3525 3541 
Q 3525 3141 3298 2862 
Q 3072 2584 2669 2484 
Q 3125 2378 3379 2068 
Q 3634 1759 3634 1313 
Q 3634 634 3220 271 
Q 2806 -91 2034 -91 
Q 1263 -91 848 271 
Q 434 634 434 1313 
Q 434 1759 690 2068 
Q 947 2378 1403 2484 
z
M 1172 3481 
Q 1172 3119 1398 2916 
Q 1625 2713 2034 2713 
Q 2441 2713 2670 2916 
Q 2900 3119 2900 3481 
Q 2900 3844 2670 4047 
Q 2441 4250 2034 4250 
Q 1625 4250 1398 4047 
Q 1172 3844 1172 3481 
z
" transform="scale(0.015625)"/>
       </defs>
       <use xlink:href="#DejaVuSans-38"/>
       <use xlink:href="#DejaVuSans-25" x="63.623047"/>
      </g>
     </g>
    </g>
    <g id="text_16">
     <!-- % of Population -->
     <g transform="translate(14.798438 281.996635)rotate(-90)scale(0.1 -0.1)">
      <defs>
       <path id="DejaVuSans-20" transform="scale(0.015625)"/>
       <path id="DejaVuSans-6f" d="M 1959 3097 
Q 1497 3097 1228 2736 
Q 959 2375 959 1747 
Q 959 1119 1226 758 
Q 1494 397 1959 397 
Q 2419 397 2687 759 
Q 2956 1122 2956 1747 
Q 2956 2369 2687 2733 
Q 2419 3097 1959 3097 
z
M 1959 3584 
Q 2709 3584 3137 3096 
Q 3566 2609 3566 1747 
Q 3566 888 3137 398 
Q 2709 -91 1959 -91 
Q 1206 -91 779 398 
Q 353 888 353 1747 
Q 353 2609 779 3096 
Q 1206 3584 1959 3584 
z
" transform="scale(0.015625)"/>
       <path id="DejaVuSans-66" d="M 2375 4863 
L 2375 4384 
L 1825 4384 
Q 1516 4384 1395 4259 
Q 1275 4134 1275 3809 
L 1275 3500 
L 2222 3500 
L 2222 3053 
L 1275 3053 
L 1275 0 
L 697 0 
L 697 3053 
L 147 3053 
L 147 3500 
L 697 3500 
L 697 3744 
Q 697 4328 969 4595 
Q 1241 4863 1831 4863 
L 2375 4863 
z
" transform="scale(0.015625)"/>
       <path id="DejaVuSans-50" d="M 1259 4147 
L 1259 2394 
L 2053 2394 
Q 2494 2394 2734 2622 
Q 2975 2850 2975 3272 
Q 2975 3691 2734 3919 
Q 2494 4147 2053 4147 
L 1259 4147 
z
M 628 4666 
L 2053 4666 
Q 2838 4666 3239 4311 
Q 3641 3956 3641 3272 
Q 3641 2581 3239 2228 
Q 2838 1875 2053 1875 
L 1259 1875 
L 1259 0 
L 628 0 
L 628 4666 
z
" transform="scale(0.015625)"/>
       <path id="DejaVuSans-70" d="M 1159 525 
L 1159 -1331 
L 581 -1331 
L 581 3500 
L 1159 3500 
L 1159 2969 
Q 1341 3281 1617 3432 
Q 1894 3584 2278 3584 
Q 2916 3584 3314 3078 
Q 3713 2572 3713 1747 
Q 3713 922 3314 415 
Q 2916 -91 2278 -91 
Q 1894 -91 1617 61 
Q 1341 213 1159 525 
z
M 3116 1747 
Q 3116 2381 2855 2742 
Q 2594 3103 2138 3103 
Q 1681 3103 1420 2742 
Q 1159 2381 1159 1747 
Q 1159 1113 1420 752 
Q 1681 391 2138 391 
Q 2594 391 2855 752 
Q 3116 1113 3116 1747 
z
" transform="scale(0.015625)"/>
       <path id="DejaVuSans-75" d="M 544 1381 
L 544 3500 
L 1119 3500 
L 1119 1403 
Q 1119 906 1312 657 
Q 1506 409 1894 409 
Q 2359 409 2629 706 
Q 2900 1003 2900 1516 
L 2900 3500 
L 3475 3500 
L 3475 0 
L 2900 0 
L 2900 538 
Q 2691 219 2414 64 
Q 2138 -91 1772 -91 
Q 1169 -91 856 284 
Q 544 659 544 1381 
z
M 1991 3584 
L 1991 3584 
z
" transform="scale(0.015625)"/>
       <path id="DejaVuSans-6c" d="M 603 4863 
L 1178 4863 
L 1178 0 
L 603 0 
L 603 4863 
z
" transform="scale(0.015625)"/>
       <path id="DejaVuSans-74" d="M 1172 4494 
L 1172 3500 
L 2356 3500 
L 2356 3053 
L 1172 3053 
L 1172 1153 
Q 1172 725 1289 603 
Q 1406 481 1766 481 
L 2356 481 
L 2356 0 
L 1766 0 
Q 1100 0 847 248 
Q 594 497 594 1153 
L 594 3053 
L 172 3053 
L 172 3500 
L 594 3500 
L 594 4494 
L 1172 4494 
z
" transform="scale(0.015625)"/>
       <path id="DejaVuSans-69" d="M 603 3500 
L 1178 3500 
L 1178 0 
L 603 0 
L 603 3500 
z
M 603 4863 
L 1178 4863 
L 1178 4134 
L 603 4134 
L 603 4863 
z
" transform="scale(0.015625)"/>
       <path id="DejaVuSans-6e" d="M 3513 2113 
L 3513 0 
L 2938 0 
L 2938 2094 
Q 2938 2591 2744 2837 
Q 2550 3084 2163 3084 
Q 1697 3084 1428 2787 
Q 1159 2491 1159 1978 
L 1159 0 
L 581 0 
L 581 3500 
L 1159 3500 
L 1159 2956 
Q 1366 3272 1645 3428 
Q 1925 3584 2291 3584 
Q 2894 3584 3203 3211 
Q 3513 2838 3513 2113 
z
" transform="scale(0.015625)"/>
      </defs>
      <use xlink:href="#DejaVuSans-25"/>
      <use xlink:href="#DejaVuSans-20" x="95.019531"/>
      <use xlink:href="#DejaVuSans-6f" x="126.806641"/>
      <use xlink:href="#DejaVuSans-66" x="187.988281"/>
      <use xlink:href="#DejaVuSans-20" x="223.193359"/>
      <use xlink:href="#DejaVuSans-50" x="254.980469"/>
      <use xlink:href="#DejaVuSans-6f" x="311.658203"/>
      <use xlink:href="#DejaVuSans-70" x="372.839844"/>
      <use xlink:href="#DejaVuSans-75" x="436.316406"/>
      <use xlink:href="#DejaVuSans-6c" x="499.695312"/>
      <use xlink:href="#DejaVuSans-61" x="527.478516"/>
      <use xlink:href="#DejaVuSans-74" x="588.757812"/>
      <use xlink:href="#DejaVuSans-69" x="627.966797"/>
      <use xlink:href="#DejaVuSans-6f" x="655.75"/>
      <use xlink:href="#DejaVuSans-6e" x="716.931641"/>
     </g>
    </g>
   </g>
   <g id="line2d_15">
    <path d="M 62.507061 26.455569 
L 78.824343 42.619182 
L 95.141625 61.541092 
L 111.458906 62.258249 
L 127.776188 87.138077 
L 144.093469 118.086156 
L 160.410751 123.326918 
L 176.728033 137.504559 
L 193.045314 148.041249 
L 209.362596 162.163723 
L 225.679878 173.41757 
L 241.997159 185.278243 
L 258.314441 196.145928 
L 274.631722 205.744798 
L 290.949004 214.736842 
L 307.266286 223.287559 
L 323.583567 231.176285 
L 339.900849 238.844348 
L 356.218131 246.51241 
L 372.535412 253.904643 
L 388.852694 261.407207 
L 405.169975 268.964938 
L 421.487257 276.577834 
L 437.804539 284.301063 
" clip-path="url(#p45b133d250)" style="fill: none; stroke: #bdbdbd; stroke-width: 4; stroke-linecap: square"/>
   </g>
   <g id="line2d_16">
    <path d="M 62.507061 26.455569 
L 78.824343 42.619182 
L 95.141625 61.541092 
L 111.458906 62.258249 
L 127.776188 87.138077 
L 144.093469 118.086156 
L 160.410751 123.326918 
L 176.728033 140.023802 
L 193.045314 153.104254 
L 209.362596 169.709195 
L 225.679878 183.476156 
L 241.997159 197.788646 
L 258.314441 211.083632 
L 274.631722 223.115932 
L 290.949004 234.529147 
L 307.266286 245.415221 
L 323.583567 255.676082 
L 339.900849 265.716278 
L 356.218131 275.682921 
L 372.535412 285.343086 
L 388.852694 295.052287 
L 405.169975 304.755359 
L 421.487257 314.403265 
L 437.804539 323.996004 
" clip-path="url(#p45b133d250)" style="fill: none; stroke: #8c96c6; stroke-width: 4; stroke-linecap: square"/>
   </g>
   <g id="line2d_17">
    <path d="M 62.507061 26.455569 
L 78.824343 42.619182 
L 95.141625 61.541092 
L 111.458906 62.258249 
L 127.776188 87.138077 
L 144.093469 118.086156 
L 160.410751 123.492416 
L 176.728033 139.92573 
L 193.045314 152.442263 
L 209.362596 168.090995 
L 225.679878 181.330815 
L 241.997159 195.110035 
L 258.314441 207.902398 
L 274.631722 219.450463 
L 290.949004 230.403962 
L 307.266286 240.903875 
L 323.583567 250.796963 
L 339.900849 260.438739 
L 356.218131 269.823074 
L 372.535412 279.07256 
L 388.852694 288.205584 
L 405.169975 297.216017 
L 421.487257 306.079341 
L 437.804539 314.489078 
" clip-path="url(#p45b133d250)" style="fill: none; stroke: #8856a7; stroke-width: 4; stroke-linecap: square"/>
   </g>
   <g id="line2d_18">
    <path d="M 62.507061 26.455569 
L 78.824343 42.619182 
L 95.141625 61.541092 
L 111.458906 62.258249 
L 127.776188 87.138077 
L 144.093469 118.086156 
L 160.410751 130.860131 
L 176.728033 151.437017 
L 193.045314 167.833554 
L 209.362596 187.417454 
L 225.679878 203.581068 
L 241.997159 219.836624 
L 258.314441 234.541406 
L 274.631722 247.707671 
L 290.949004 259.911598 
L 307.266286 271.239 
L 323.583567 281.653099 
L 339.900849 291.521668 
L 356.218131 300.942781 
L 372.535412 309.947084 
L 388.852694 318.663299 
L 405.169975 327.115944 
L 421.487257 335.298888 
L 437.804539 343.279557 
" clip-path="url(#p45b133d250)" style="fill: none; stroke: #810f7c; stroke-width: 4; stroke-linecap: square"/>
   </g>
   <g id="patch_3">
    <path d="M 43.742188 463.645457 
L 43.742188 22.318125 
" style="fill: none; stroke: #000000; stroke-width: 0.8; stroke-linejoin: miter; stroke-linecap: square"/>
   </g>
   <g id="patch_4">
    <path d="M 456.569412 463.645457 
L 456.569412 22.318125 
" style="fill: none; stroke: #000000; stroke-width: 0.8; stroke-linejoin: miter; stroke-linecap: square"/>
   </g>
   <g id="patch_5">
    <path d="M 43.742188 463.645457 
L 456.569413 463.645457 
" style="fill: none; stroke: #000000; stroke-width: 0.8; stroke-linejoin: miter; stroke-linecap: square"/>
   </g>
   <g id="patch_6">
    <path d="M 43.742188 22.318125 
L 456.569413 22.318125 
" style="fill: none; stroke: #000000; stroke-width: 0.8; stroke-linejoin: miter; stroke-linecap: square"/>
   </g>
   <g id="text_17">
    <!-- Prevalence of Global Undernourishment -->
    <g transform="translate(130.510175 16.318125)scale(0.12 -0.12)">
     <defs>
      <path id="DejaVuSans-76" d="M 191 3500 
L 800 3500 
L 1894 563 
L 2988 3500 
L 3597 3500 
L 2284 0 
L 1503 0 
L 191 3500 
z
" transform="scale(0.015625)"/>
      <path id="DejaVuSans-63" d="M 3122 3366 
L 3122 2828 
Q 2878 2963 2633 3030 
Q 2388 3097 2138 3097 
Q 1578 3097 1268 2742 
Q 959 2388 959 1747 
Q 959 1106 1268 751 
Q 1578 397 2138 397 
Q 2388 397 2633 464 
Q 2878 531 3122 666 
L 3122 134 
Q 2881 22 2623 -34 
Q 2366 -91 2075 -91 
Q 1284 -91 818 406 
Q 353 903 353 1747 
Q 353 2603 823 3093 
Q 1294 3584 2113 3584 
Q 2378 3584 2631 3529 
Q 2884 3475 3122 3366 
z
" transform="scale(0.015625)"/>
      <path id="DejaVuSans-47" d="M 3809 666 
L 3809 1919 
L 2778 1919 
L 2778 2438 
L 4434 2438 
L 4434 434 
Q 4069 175 3628 42 
Q 3188 -91 2688 -91 
Q 1594 -91 976 548 
Q 359 1188 359 2328 
Q 359 3472 976 4111 
Q 1594 4750 2688 4750 
Q 3144 4750 3555 4637 
Q 3966 4525 4313 4306 
L 4313 3634 
Q 3963 3931 3569 4081 
Q 3175 4231 2741 4231 
Q 1884 4231 1454 3753 
Q 1025 3275 1025 2328 
Q 1025 1384 1454 906 
Q 1884 428 2741 428 
Q 3075 428 3337 486 
Q 3600 544 3809 666 
z
" transform="scale(0.015625)"/>
      <path id="DejaVuSans-62" d="M 3116 1747 
Q 3116 2381 2855 2742 
Q 2594 3103 2138 3103 
Q 1681 3103 1420 2742 
Q 1159 2381 1159 1747 
Q 1159 1113 1420 752 
Q 1681 391 2138 391 
Q 2594 391 2855 752 
Q 3116 1113 3116 1747 
z
M 1159 2969 
Q 1341 3281 1617 3432 
Q 1894 3584 2278 3584 
Q 2916 3584 3314 3078 
Q 3713 2572 3713 1747 
Q 3713 922 3314 415 
Q 2916 -91 2278 -91 
Q 1894 -91 1617 61 
Q 1341 213 1159 525 
L 1159 0 
L 581 0 
L 581 4863 
L 1159 4863 
L 1159 2969 
z
" transform="scale(0.015625)"/>
      <path id="DejaVuSans-55" d="M 556 4666 
L 1191 4666 
L 1191 1831 
Q 1191 1081 1462 751 
Q 1734 422 2344 422 
Q 2950 422 3222 751 
Q 3494 1081 3494 1831 
L 3494 4666 
L 4128 4666 
L 4128 1753 
Q 4128 841 3676 375 
Q 3225 -91 2344 -91 
Q 1459 -91 1007 375 
Q 556 841 556 1753 
L 556 4666 
z
" transform="scale(0.015625)"/>
      <path id="DejaVuSans-64" d="M 2906 2969 
L 2906 4863 
L 3481 4863 
L 3481 0 
L 2906 0 
L 2906 525 
Q 2725 213 2448 61 
Q 2172 -91 1784 -91 
Q 1150 -91 751 415 
Q 353 922 353 1747 
Q 353 2572 751 3078 
Q 1150 3584 1784 3584 
Q 2172 3584 2448 3432 
Q 2725 3281 2906 2969 
z
M 947 1747 
Q 947 1113 1208 752 
Q 1469 391 1925 391 
Q 2381 391 2643 752 
Q 2906 1113 2906 1747 
Q 2906 2381 2643 2742 
Q 2381 3103 1925 3103 
Q 1469 3103 1208 2742 
Q 947 2381 947 1747 
z
" transform="scale(0.015625)"/>
      <path id="DejaVuSans-73" d="M 2834 3397 
L 2834 2853 
Q 2591 2978 2328 3040 
Q 2066 3103 1784 3103 
Q 1356 3103 1142 2972 
Q 928 2841 928 2578 
Q 928 2378 1081 2264 
Q 1234 2150 1697 2047 
L 1894 2003 
Q 2506 1872 2764 1633 
Q 3022 1394 3022 966 
Q 3022 478 2636 193 
Q 2250 -91 1575 -91 
Q 1294 -91 989 -36 
Q 684 19 347 128 
L 347 722 
Q 666 556 975 473 
Q 1284 391 1588 391 
Q 1994 391 2212 530 
Q 2431 669 2431 922 
Q 2431 1156 2273 1281 
Q 2116 1406 1581 1522 
L 1381 1569 
Q 847 1681 609 1914 
Q 372 2147 372 2553 
Q 372 3047 722 3315 
Q 1072 3584 1716 3584 
Q 2034 3584 2315 3537 
Q 2597 3491 2834 3397 
z
" transform="scale(0.015625)"/>
      <path id="DejaVuSans-68" d="M 3513 2113 
L 3513 0 
L 2938 0 
L 2938 2094 
Q 2938 2591 2744 2837 
Q 2550 3084 2163 3084 
Q 1697 3084 1428 2787 
Q 1159 2491 1159 1978 
L 1159 0 
L 581 0 
L 581 4863 
L 1159 4863 
L 1159 2956 
Q 1366 3272 1645 3428 
Q 1925 3584 2291 3584 
Q 2894 3584 3203 3211 
Q 3513 2838 3513 2113 
z
" transform="scale(0.015625)"/>
      <path id="DejaVuSans-6d" d="M 3328 2828 
Q 3544 3216 3844 3400 
Q 4144 3584 4550 3584 
Q 5097 3584 5394 3201 
Q 5691 2819 5691 2113 
L 5691 0 
L 5113 0 
L 5113 2094 
Q 5113 2597 4934 2840 
Q 4756 3084 4391 3084 
Q 3944 3084 3684 2787 
Q 3425 2491 3425 1978 
L 3425 0 
L 2847 0 
L 2847 2094 
Q 2847 2600 2669 2842 
Q 2491 3084 2119 3084 
Q 1678 3084 1418 2786 
Q 1159 2488 1159 1978 
L 1159 0 
L 581 0 
L 581 3500 
L 1159 3500 
L 1159 2956 
Q 1356 3278 1631 3431 
Q 1906 3584 2284 3584 
Q 2666 3584 2933 3390 
Q 3200 3197 3328 2828 
z
" transform="scale(0.015625)"/>
     </defs>
     <use xlink:href="#DejaVuSans-50"/>
     <use xlink:href="#DejaVuSans-72" x="58.552734"/>
     <use xlink:href="#DejaVuSans-65" x="97.416016"/>
     <use xlink:href="#DejaVuSans-76" x="158.939453"/>
     <use xlink:href="#DejaVuSans-61" x="218.119141"/>
     <use xlink:href="#DejaVuSans-6c" x="279.398438"/>
     <use xlink:href="#DejaVuSans-65" x="307.181641"/>
     <use xlink:href="#DejaVuSans-6e" x="368.705078"/>
     <use xlink:href="#DejaVuSans-63" x="432.083984"/>
     <use xlink:href="#DejaVuSans-65" x="487.064453"/>
     <use xlink:href="#DejaVuSans-20" x="548.587891"/>
     <use xlink:href="#DejaVuSans-6f" x="580.375"/>
     <use xlink:href="#DejaVuSans-66" x="641.556641"/>
     <use xlink:href="#DejaVuSans-20" x="676.761719"/>
     <use xlink:href="#DejaVuSans-47" x="708.548828"/>
     <use xlink:href="#DejaVuSans-6c" x="786.039062"/>
     <use xlink:href="#DejaVuSans-6f" x="813.822266"/>
     <use xlink:href="#DejaVuSans-62" x="875.003906"/>
     <use xlink:href="#DejaVuSans-61" x="938.480469"/>
     <use xlink:href="#DejaVuSans-6c" x="999.759766"/>
     <use xlink:href="#DejaVuSans-20" x="1027.542969"/>
     <use xlink:href="#DejaVuSans-55" x="1059.330078"/>
     <use xlink:href="#DejaVuSans-6e" x="1132.523438"/>
     <use xlink:href="#DejaVuSans-64" x="1195.902344"/>
     <use xlink:href="#DejaVuSans-65" x="1259.378906"/>
     <use xlink:href="#DejaVuSans-72" x="1320.902344"/>
     <use xlink:href="#DejaVuSans-6e" x="1360.265625"/>
     <use xlink:href="#DejaVuSans-6f" x="1423.644531"/>
     <use xlink:href="#DejaVuSans-75" x="1484.826172"/>
     <use xlink:href="#DejaVuSans-72" x="1548.205078"/>
     <use xlink:href="#DejaVuSans-69" x="1589.318359"/>
     <use xlink:href="#DejaVuSans-73" x="1617.101562"/>
     <use xlink:href="#DejaVuSans-68" x="1669.201172"/>
     <use xlink:href="#DejaVuSans-6d" x="1732.580078"/>
     <use xlink:href="#DejaVuSans-65" x="1829.992188"/>
     <use xlink:href="#DejaVuSans-6e" x="1891.515625"/>
     <use xlink:href="#DejaVuSans-74" x="1954.894531"/>
    </g>
   </g>
  </g>
  <g id="axes_2">
   <g id="patch_7">
    <path d="M 508.652705 463.645457 
L 577.457243 463.645457 
L 577.457243 22.318125 
L 508.652705 22.318125 
z
" style="fill: #ffffff"/>
   </g>
   <g id="patch_8">
    <path d="M 511.780184 463.645457 
L 574.329764 463.645457 
L 574.329764 284.301063 
L 511.780184 284.301063 
z
" clip-path="url(#p97279595c0)" style="fill: #bdbdbd"/>
   </g>
   <g id="matplotlib.axis_3">
    <g id="xtick_6">
     <g id="line2d_19">
      <g>
       <use xlink:href="#mae6404102a" x="543.054974" y="463.645457" style="stroke: #000000; stroke-width: 0.8"/>
      </g>
     </g>
     <g id="text_18">
      <!--   -->
      <g transform="translate(541.465911 478.243895)scale(0.1 -0.1)">
       <use xlink:href="#DejaVuSans-20"/>
      </g>
     </g>
    </g>
    <g id="text_19">
     <!-- BaU -->
     <g transform="translate(532.901068 503.119832)scale(0.1 -0.1)">
      <defs>
       <path id="DejaVuSans-42" d="M 1259 2228 
L 1259 519 
L 2272 519 
Q 2781 519 3026 730 
Q 3272 941 3272 1375 
Q 3272 1813 3026 2020 
Q 2781 2228 2272 2228 
L 1259 2228 
z
M 1259 4147 
L 1259 2741 
L 2194 2741 
Q 2656 2741 2882 2914 
Q 3109 3088 3109 3444 
Q 3109 3797 2882 3972 
Q 2656 4147 2194 4147 
L 1259 4147 
z
M 628 4666 
L 2241 4666 
Q 2963 4666 3353 4366 
Q 3744 4066 3744 3513 
Q 3744 3084 3544 2831 
Q 3344 2578 2956 2516 
Q 3422 2416 3680 2098 
Q 3938 1781 3938 1306 
Q 3938 681 3513 340 
Q 3088 0 2303 0 
L 628 0 
L 628 4666 
z
" transform="scale(0.015625)"/>
      </defs>
      <use xlink:href="#DejaVuSans-42"/>
      <use xlink:href="#DejaVuSans-61" x="68.603516"/>
      <use xlink:href="#DejaVuSans-55" x="129.882812"/>
     </g>
    </g>
   </g>
   <g id="matplotlib.axis_4">
    <g id="ytick_10">
     <g id="line2d_20">
      <g>
       <use xlink:href="#m72ed395774" x="508.652705" y="463.645457" style="stroke: #000000; stroke-width: 0.8"/>
      </g>
     </g>
     <g id="text_20">
      <!-- 0.0% -->
      <g transform="translate(476.248018 467.444676)scale(0.1 -0.1)">
       <defs>
        <path id="DejaVuSans-2e" d="M 684 794 
L 1344 794 
L 1344 0 
L 684 0 
L 684 794 
z
" transform="scale(0.015625)"/>
       </defs>
       <use xlink:href="#DejaVuSans-30"/>
       <use xlink:href="#DejaVuSans-2e" x="63.623047"/>
       <use xlink:href="#DejaVuSans-30" x="95.410156"/>
       <use xlink:href="#DejaVuSans-25" x="159.033203"/>
      </g>
     </g>
    </g>
    <g id="ytick_11">
     <g id="line2d_21">
      <g>
       <use xlink:href="#m72ed395774" x="508.652705" y="408.479541" style="stroke: #000000; stroke-width: 0.8"/>
      </g>
     </g>
     <g id="text_21">
      <!-- 1.0% -->
      <g transform="translate(476.248018 412.27876)scale(0.1 -0.1)">
       <use xlink:href="#DejaVuSans-31"/>
       <use xlink:href="#DejaVuSans-2e" x="63.623047"/>
       <use xlink:href="#DejaVuSans-30" x="95.410156"/>
       <use xlink:href="#DejaVuSans-25" x="159.033203"/>
      </g>
     </g>
    </g>
    <g id="ytick_12">
     <g id="line2d_22">
      <g>
       <use xlink:href="#m72ed395774" x="508.652705" y="353.313624" style="stroke: #000000; stroke-width: 0.8"/>
      </g>
     </g>
     <g id="text_22">
      <!-- 2.0% -->
      <g transform="translate(476.248018 357.112843)scale(0.1 -0.1)">
       <use xlink:href="#DejaVuSans-32"/>
       <use xlink:href="#DejaVuSans-2e" x="63.623047"/>
       <use xlink:href="#DejaVuSans-30" x="95.410156"/>
       <use xlink:href="#DejaVuSans-25" x="159.033203"/>
      </g>
     </g>
    </g>
    <g id="ytick_13">
     <g id="line2d_23">
      <g>
       <use xlink:href="#m72ed395774" x="508.652705" y="298.147708" style="stroke: #000000; stroke-width: 0.8"/>
      </g>
     </g>
     <g id="text_23">
      <!-- 3.0% -->
      <g transform="translate(476.248018 301.946927)scale(0.1 -0.1)">
       <use xlink:href="#DejaVuSans-33"/>
       <use xlink:href="#DejaVuSans-2e" x="63.623047"/>
       <use xlink:href="#DejaVuSans-30" x="95.410156"/>
       <use xlink:href="#DejaVuSans-25" x="159.033203"/>
      </g>
     </g>
    </g>
    <g id="ytick_14">
     <g id="line2d_24">
      <g>
       <use xlink:href="#m72ed395774" x="508.652705" y="242.981791" style="stroke: #000000; stroke-width: 0.8"/>
      </g>
     </g>
     <g id="text_24">
      <!-- 4.0% -->
      <g transform="translate(476.248018 246.78101)scale(0.1 -0.1)">
       <use xlink:href="#DejaVuSans-34"/>
       <use xlink:href="#DejaVuSans-2e" x="63.623047"/>
       <use xlink:href="#DejaVuSans-30" x="95.410156"/>
       <use xlink:href="#DejaVuSans-25" x="159.033203"/>
      </g>
     </g>
    </g>
    <g id="ytick_15">
     <g id="line2d_25">
      <g>
       <use xlink:href="#m72ed395774" x="508.652705" y="187.815875" style="stroke: #000000; stroke-width: 0.8"/>
      </g>
     </g>
     <g id="text_25">
      <!-- 5.0% -->
      <g transform="translate(476.248018 191.615093)scale(0.1 -0.1)">
       <use xlink:href="#DejaVuSans-35"/>
       <use xlink:href="#DejaVuSans-2e" x="63.623047"/>
       <use xlink:href="#DejaVuSans-30" x="95.410156"/>
       <use xlink:href="#DejaVuSans-25" x="159.033203"/>
      </g>
     </g>
    </g>
    <g id="ytick_16">
     <g id="line2d_26">
      <g>
       <use xlink:href="#m72ed395774" x="508.652705" y="132.649958" style="stroke: #000000; stroke-width: 0.8"/>
      </g>
     </g>
     <g id="text_26">
      <!-- 6.0% -->
      <g transform="translate(476.248018 136.449177)scale(0.1 -0.1)">
       <use xlink:href="#DejaVuSans-36"/>
       <use xlink:href="#DejaVuSans-2e" x="63.623047"/>
       <use xlink:href="#DejaVuSans-30" x="95.410156"/>
       <use xlink:href="#DejaVuSans-25" x="159.033203"/>
      </g>
     </g>
    </g>
    <g id="ytick_17">
     <g id="line2d_27">
      <g>
       <use xlink:href="#m72ed395774" x="508.652705" y="77.484042" style="stroke: #000000; stroke-width: 0.8"/>
      </g>
     </g>
     <g id="text_27">
      <!-- 7.0% -->
      <g transform="translate(476.248018 81.28326)scale(0.1 -0.1)">
       <use xlink:href="#DejaVuSans-37"/>
       <use xlink:href="#DejaVuSans-2e" x="63.623047"/>
       <use xlink:href="#DejaVuSans-30" x="95.410156"/>
       <use xlink:href="#DejaVuSans-25" x="159.033203"/>
      </g>
     </g>
    </g>
    <g id="ytick_18">
     <g id="line2d_28">
      <g>
       <use xlink:href="#m72ed395774" x="508.652705" y="22.318125" style="stroke: #000000; stroke-width: 0.8"/>
      </g>
     </g>
     <g id="text_28">
      <!-- 8.0% -->
      <g transform="translate(476.248018 26.117344)scale(0.1 -0.1)">
       <use xlink:href="#DejaVuSans-38"/>
       <use xlink:href="#DejaVuSans-2e" x="63.623047"/>
       <use xlink:href="#DejaVuSans-30" x="95.410156"/>
       <use xlink:href="#DejaVuSans-25" x="159.033203"/>
      </g>
     </g>
    </g>
    <g id="text_29">
     <!-- Prevalence of Undernourishment in 2040 -->
     <g transform="translate(470.16833 345.608354)rotate(-90)scale(0.1 -0.1)">
      <use xlink:href="#DejaVuSans-50"/>
      <use xlink:href="#DejaVuSans-72" x="58.552734"/>
      <use xlink:href="#DejaVuSans-65" x="97.416016"/>
      <use xlink:href="#DejaVuSans-76" x="158.939453"/>
      <use xlink:href="#DejaVuSans-61" x="218.119141"/>
      <use xlink:href="#DejaVuSans-6c" x="279.398438"/>
      <use xlink:href="#DejaVuSans-65" x="307.181641"/>
      <use xlink:href="#DejaVuSans-6e" x="368.705078"/>
      <use xlink:href="#DejaVuSans-63" x="432.083984"/>
      <use xlink:href="#DejaVuSans-65" x="487.064453"/>
      <use xlink:href="#DejaVuSans-20" x="548.587891"/>
      <use xlink:href="#DejaVuSans-6f" x="580.375"/>
      <use xlink:href="#DejaVuSans-66" x="641.556641"/>
      <use xlink:href="#DejaVuSans-20" x="676.761719"/>
      <use xlink:href="#DejaVuSans-55" x="708.548828"/>
      <use xlink:href="#DejaVuSans-6e" x="781.742188"/>
      <use xlink:href="#DejaVuSans-64" x="845.121094"/>
      <use xlink:href="#DejaVuSans-65" x="908.597656"/>
      <use xlink:href="#DejaVuSans-72" x="970.121094"/>
      <use xlink:href="#DejaVuSans-6e" x="1009.484375"/>
      <use xlink:href="#DejaVuSans-6f" x="1072.863281"/>
      <use xlink:href="#DejaVuSans-75" x="1134.044922"/>
      <use xlink:href="#DejaVuSans-72" x="1197.423828"/>
      <use xlink:href="#DejaVuSans-69" x="1238.537109"/>
      <use xlink:href="#DejaVuSans-73" x="1266.320312"/>
      <use xlink:href="#DejaVuSans-68" x="1318.419922"/>
      <use xlink:href="#DejaVuSans-6d" x="1381.798828"/>
      <use xlink:href="#DejaVuSans-65" x="1479.210938"/>
      <use xlink:href="#DejaVuSans-6e" x="1540.734375"/>
      <use xlink:href="#DejaVuSans-74" x="1604.113281"/>
      <use xlink:href="#DejaVuSans-20" x="1643.322266"/>
      <use xlink:href="#DejaVuSans-69" x="1675.109375"/>
      <use xlink:href="#DejaVuSans-6e" x="1702.892578"/>
      <use xlink:href="#DejaVuSans-20" x="1766.271484"/>
      <use xlink:href="#DejaVuSans-32" x="1798.058594"/>
      <use xlink:href="#DejaVuSans-30" x="1861.681641"/>
      <use xlink:href="#DejaVuSans-34" x="1925.304688"/>
      <use xlink:href="#DejaVuSans-30" x="1988.927734"/>
     </g>
    </g>
   </g>
   <g id="patch_9">
    <path d="M 508.652705 463.645457 
L 508.652705 22.318125 
" style="fill: none; stroke: #000000; stroke-width: 0.8; stroke-linejoin: miter; stroke-linecap: square"/>
   </g>
   <g id="patch_10">
    <path d="M 577.457243 463.645457 
L 577.457243 22.318125 
" style="fill: none; stroke: #000000; stroke-width: 0.8; stroke-linejoin: miter; stroke-linecap: square"/>
   </g>
   <g id="patch_11">
    <path d="M 508.652705 463.645457 
L 577.457243 463.645457 
" style="fill: none; stroke: #000000; stroke-width: 0.8; stroke-linejoin: miter; stroke-linecap: square"/>
   </g>
   <g id="patch_12">
    <path d="M 508.652705 22.318125 
L 577.457243 22.318125 
" style="fill: none; stroke: #000000; stroke-width: 0.8; stroke-linejoin: miter; stroke-linecap: square"/>
   </g>
  </g>
  <g id="axes_3">
   <g id="patch_13">
    <path d="M 586.957723 463.645457 
L 793.371335 463.645457 
L 793.371335 22.318125 
L 586.957723 22.318125 
z
" style="fill: #ffffff"/>
   </g>
   <g id="patch_14">
    <path d="M 596.340159 463.645457 
L 649.954085 463.645457 
L 649.954085 302.652924 
L 596.340159 302.652924 
z
" clip-path="url(#pa10d3c3f7f)" style="fill: #8c96c6"/>
   </g>
   <g id="patch_15">
    <path d="M 663.357566 463.645457 
L 716.971491 463.645457 
L 716.971491 319.257865 
L 663.357566 319.257865 
z
" clip-path="url(#pa10d3c3f7f)" style="fill: #8c96c6"/>
   </g>
   <g id="patch_16">
    <path d="M 730.374973 463.645457 
L 783.988898 463.645457 
L 783.988898 350.077224 
L 730.374973 350.077224 
z
" clip-path="url(#pa10d3c3f7f)" style="fill: #8c96c6"/>
   </g>
   <g id="PathCollection_1">
    <defs>
     <path id="m382795c79c" d="M 0 3.872983 
C 1.027127 3.872983 2.012324 3.464901 2.738613 2.738613 
C 3.464901 2.012324 3.872983 1.027127 3.872983 0 
C 3.872983 -1.027127 3.464901 -2.012324 2.738613 -2.738613 
C 2.012324 -3.464901 1.027127 -3.872983 0 -3.872983 
C -1.027127 -3.872983 -2.012324 -3.464901 -2.738613 -2.738613 
C -3.464901 -2.012324 -3.872983 -1.027127 -3.872983 0 
C -3.872983 1.027127 -3.464901 2.012324 -2.738613 2.738613 
C -2.012324 3.464901 -1.027127 3.872983 0 3.872983 
z
" style="stroke: #000000"/>
    </defs>
    <g clip-path="url(#pa10d3c3f7f)">
     <use xlink:href="#m382795c79c" x="623.147122" y="297.320219" style="fill: #808080; stroke: #000000"/>
    </g>
   </g>
   <g id="PathCollection_2">
    <defs>
     <path id="m652935c70d" d="M -3.872983 3.872983 
L 3.872983 3.872983 
L 3.872983 -3.872983 
L -3.872983 -3.872983 
z
" style="stroke: #000000"/>
    </defs>
    <g clip-path="url(#pa10d3c3f7f)">
     <use xlink:href="#m652935c70d" x="623.147122" y="302.560981" style="fill: #808080; stroke: #000000"/>
    </g>
   </g>
   <g id="PathCollection_3">
    <defs>
     <path id="m2ae1ed48e9" d="M 0 -3.872983 
L -3.872983 3.872983 
L 3.872983 3.872983 
z
" style="stroke: #000000"/>
    </defs>
    <g clip-path="url(#pa10d3c3f7f)">
     <use xlink:href="#m2ae1ed48e9" x="623.147122" y="308.077573" style="fill: #808080; stroke: #000000"/>
    </g>
   </g>
   <g id="PathCollection_4">
    <g clip-path="url(#pa10d3c3f7f)">
     <use xlink:href="#m382795c79c" x="690.164529" y="309.677384" style="fill: #808080; stroke: #000000"/>
    </g>
   </g>
   <g id="PathCollection_5">
    <g clip-path="url(#pa10d3c3f7f)">
     <use xlink:href="#m652935c70d" x="690.164529" y="318.007438" style="fill: #808080; stroke: #000000"/>
    </g>
   </g>
   <g id="PathCollection_6">
    <g clip-path="url(#pa10d3c3f7f)">
     <use xlink:href="#m2ae1ed48e9" x="690.164529" y="330.088774" style="fill: #808080; stroke: #000000"/>
    </g>
   </g>
   <g id="PathCollection_7">
    <g clip-path="url(#pa10d3c3f7f)">
     <use xlink:href="#m382795c79c" x="757.181935" y="337.370674" style="fill: #808080; stroke: #000000"/>
    </g>
   </g>
   <g id="PathCollection_8">
    <g clip-path="url(#pa10d3c3f7f)">
     <use xlink:href="#m652935c70d" x="757.181935" y="351.051822" style="fill: #808080; stroke: #000000"/>
    </g>
   </g>
   <g id="PathCollection_9">
    <g clip-path="url(#pa10d3c3f7f)">
     <use xlink:href="#m2ae1ed48e9" x="757.181935" y="361.809176" style="fill: #808080; stroke: #000000"/>
    </g>
   </g>
   <g id="matplotlib.axis_5">
    <g id="xtick_7">
     <g id="line2d_29">
      <g>
       <use xlink:href="#mae6404102a" x="623.147122" y="463.645457" style="stroke: #000000; stroke-width: 0.8"/>
      </g>
     </g>
     <g id="text_30">
      <!-- Average -->
      <g transform="translate(602.61431 478.243895)scale(0.1 -0.1)">
       <defs>
        <path id="DejaVuSans-41" d="M 2188 4044 
L 1331 1722 
L 3047 1722 
L 2188 4044 
z
M 1831 4666 
L 2547 4666 
L 4325 0 
L 3669 0 
L 3244 1197 
L 1141 1197 
L 716 0 
L 50 0 
L 1831 4666 
z
" transform="scale(0.015625)"/>
        <path id="DejaVuSans-67" d="M 2906 1791 
Q 2906 2416 2648 2759 
Q 2391 3103 1925 3103 
Q 1463 3103 1205 2759 
Q 947 2416 947 1791 
Q 947 1169 1205 825 
Q 1463 481 1925 481 
Q 2391 481 2648 825 
Q 2906 1169 2906 1791 
z
M 3481 434 
Q 3481 -459 3084 -895 
Q 2688 -1331 1869 -1331 
Q 1566 -1331 1297 -1286 
Q 1028 -1241 775 -1147 
L 775 -588 
Q 1028 -725 1275 -790 
Q 1522 -856 1778 -856 
Q 2344 -856 2625 -561 
Q 2906 -266 2906 331 
L 2906 616 
Q 2728 306 2450 153 
Q 2172 0 1784 0 
Q 1141 0 747 490 
Q 353 981 353 1791 
Q 353 2603 747 3093 
Q 1141 3584 1784 3584 
Q 2172 3584 2450 3431 
Q 2728 3278 2906 2969 
L 2906 3500 
L 3481 3500 
L 3481 434 
z
" transform="scale(0.015625)"/>
       </defs>
       <use xlink:href="#DejaVuSans-41"/>
       <use xlink:href="#DejaVuSans-76" x="62.533203"/>
       <use xlink:href="#DejaVuSans-65" x="121.712891"/>
       <use xlink:href="#DejaVuSans-72" x="183.236328"/>
       <use xlink:href="#DejaVuSans-61" x="224.349609"/>
       <use xlink:href="#DejaVuSans-67" x="285.628906"/>
       <use xlink:href="#DejaVuSans-65" x="349.105469"/>
      </g>
     </g>
    </g>
    <g id="xtick_8">
     <g id="line2d_30">
      <g>
       <use xlink:href="#mae6404102a" x="690.164529" y="463.645457" style="stroke: #000000; stroke-width: 0.8"/>
      </g>
     </g>
     <g id="text_31">
      <!-- Above -->
      <g transform="translate(674.474685 478.243895)scale(0.1 -0.1)">
       <use xlink:href="#DejaVuSans-41"/>
       <use xlink:href="#DejaVuSans-62" x="68.408203"/>
       <use xlink:href="#DejaVuSans-6f" x="131.884766"/>
       <use xlink:href="#DejaVuSans-76" x="193.066406"/>
       <use xlink:href="#DejaVuSans-65" x="252.246094"/>
      </g>
      <!-- Average -->
      <g transform="translate(669.631716 489.441707)scale(0.1 -0.1)">
       <use xlink:href="#DejaVuSans-41"/>
       <use xlink:href="#DejaVuSans-76" x="62.533203"/>
       <use xlink:href="#DejaVuSans-65" x="121.712891"/>
       <use xlink:href="#DejaVuSans-72" x="183.236328"/>
       <use xlink:href="#DejaVuSans-61" x="224.349609"/>
       <use xlink:href="#DejaVuSans-67" x="285.628906"/>
       <use xlink:href="#DejaVuSans-65" x="349.105469"/>
      </g>
     </g>
    </g>
    <g id="xtick_9">
     <g id="line2d_31">
      <g>
       <use xlink:href="#mae6404102a" x="757.181935" y="463.645457" style="stroke: #000000; stroke-width: 0.8"/>
      </g>
     </g>
     <g id="text_32">
      <!-- Top -->
      <g transform="translate(748.744435 478.243895)scale(0.1 -0.1)">
       <defs>
        <path id="DejaVuSans-54" d="M -19 4666 
L 3928 4666 
L 3928 4134 
L 2272 4134 
L 2272 0 
L 1638 0 
L 1638 4134 
L -19 4134 
L -19 4666 
z
" transform="scale(0.015625)"/>
       </defs>
       <use xlink:href="#DejaVuSans-54"/>
       <use xlink:href="#DejaVuSans-6f" x="44.083984"/>
       <use xlink:href="#DejaVuSans-70" x="105.265625"/>
      </g>
      <!-- Performer -->
      <g transform="translate(732.426467 489.441707)scale(0.1 -0.1)">
       <use xlink:href="#DejaVuSans-50"/>
       <use xlink:href="#DejaVuSans-65" x="56.677734"/>
       <use xlink:href="#DejaVuSans-72" x="118.201172"/>
       <use xlink:href="#DejaVuSans-66" x="159.314453"/>
       <use xlink:href="#DejaVuSans-6f" x="194.519531"/>
       <use xlink:href="#DejaVuSans-72" x="255.701172"/>
       <use xlink:href="#DejaVuSans-6d" x="295.064453"/>
       <use xlink:href="#DejaVuSans-65" x="392.476562"/>
       <use xlink:href="#DejaVuSans-72" x="454"/>
      </g>
     </g>
    </g>
    <g id="text_33">
     <!-- EDF -->
     <g transform="translate(680.279373 503.119832)scale(0.1 -0.1)">
      <defs>
       <path id="DejaVuSans-45" d="M 628 4666 
L 3578 4666 
L 3578 4134 
L 1259 4134 
L 1259 2753 
L 3481 2753 
L 3481 2222 
L 1259 2222 
L 1259 531 
L 3634 531 
L 3634 0 
L 628 0 
L 628 4666 
z
" transform="scale(0.015625)"/>
       <path id="DejaVuSans-44" d="M 1259 4147 
L 1259 519 
L 2022 519 
Q 2988 519 3436 956 
Q 3884 1394 3884 2338 
Q 3884 3275 3436 3711 
Q 2988 4147 2022 4147 
L 1259 4147 
z
M 628 4666 
L 1925 4666 
Q 3281 4666 3915 4102 
Q 4550 3538 4550 2338 
Q 4550 1131 3912 565 
Q 3275 0 1925 0 
L 628 0 
L 628 4666 
z
" transform="scale(0.015625)"/>
       <path id="DejaVuSans-46" d="M 628 4666 
L 3309 4666 
L 3309 4134 
L 1259 4134 
L 1259 2759 
L 3109 2759 
L 3109 2228 
L 1259 2228 
L 1259 0 
L 628 0 
L 628 4666 
z
" transform="scale(0.015625)"/>
      </defs>
      <use xlink:href="#DejaVuSans-45"/>
      <use xlink:href="#DejaVuSans-44" x="63.183594"/>
      <use xlink:href="#DejaVuSans-46" x="140.185547"/>
     </g>
    </g>
   </g>
   <g id="line2d_32">
    <path d="M 586.957723 323.996004 
L 793.371335 323.996004 
" clip-path="url(#pa10d3c3f7f)" style="fill: none; stroke-dasharray: 5.55,2.4; stroke-dashoffset: 0; stroke: #000000; stroke-width: 1.5"/>
   </g>
   <g id="patch_17">
    <path d="M 586.957723 463.645457 
L 586.957723 22.318125 
" style="fill: none; stroke: #000000; stroke-width: 0.8; stroke-linejoin: miter; stroke-linecap: square"/>
   </g>
   <g id="patch_18">
    <path d="M 793.371335 463.645457 
L 793.371335 22.318125 
" style="fill: none; stroke: #000000; stroke-width: 0.8; stroke-linejoin: miter; stroke-linecap: square"/>
   </g>
   <g id="patch_19">
    <path d="M 586.957723 463.645457 
L 793.371335 463.645457 
" style="fill: none; stroke: #000000; stroke-width: 0.8; stroke-linejoin: miter; stroke-linecap: square"/>
   </g>
   <g id="patch_20">
    <path d="M 586.957723 22.318125 
L 793.371335 22.318125 
" style="fill: none; stroke: #000000; stroke-width: 0.8; stroke-linejoin: miter; stroke-linecap: square"/>
   </g>
  </g>
  <g id="axes_4">
   <g id="patch_21">
    <path d="M 802.871815 463.645457 
L 1009.285427 463.645457 
L 1009.285427 22.318125 
L 802.871815 22.318125 
z
" style="fill: #ffffff"/>
   </g>
   <g id="patch_22">
    <path d="M 812.254252 463.645457 
L 865.868177 463.645457 
L 865.868177 294.911307 
L 812.254252 294.911307 
z
" clip-path="url(#p558e9186b8)" style="fill: #8856a7"/>
   </g>
   <g id="patch_23">
    <path d="M 879.271659 463.645457 
L 932.885584 463.645457 
L 932.885584 311.865632 
L 879.271659 311.865632 
z
" clip-path="url(#p558e9186b8)" style="fill: #8856a7"/>
   </g>
   <g id="patch_24">
    <path d="M 946.289065 463.645457 
L 999.902991 463.645457 
L 999.902991 336.690295 
L 946.289065 336.690295 
z
" clip-path="url(#p558e9186b8)" style="fill: #8856a7"/>
   </g>
   <g id="PathCollection_10">
    <g clip-path="url(#p558e9186b8)">
     <use xlink:href="#m382795c79c" x="839.061215" y="288.935" style="fill: #808080; stroke: #000000"/>
    </g>
   </g>
   <g id="PathCollection_11">
    <g clip-path="url(#p558e9186b8)">
     <use xlink:href="#m652935c70d" x="839.061215" y="295.941071" style="fill: #808080; stroke: #000000"/>
    </g>
   </g>
   <g id="PathCollection_12">
    <g clip-path="url(#p558e9186b8)">
     <use xlink:href="#m2ae1ed48e9" x="839.061215" y="299.857851" style="fill: #808080; stroke: #000000"/>
    </g>
   </g>
   <g id="PathCollection_13">
    <g clip-path="url(#p558e9186b8)">
     <use xlink:href="#m382795c79c" x="906.078621" y="302.836811" style="fill: #808080; stroke: #000000"/>
    </g>
   </g>
   <g id="PathCollection_14">
    <g clip-path="url(#p558e9186b8)">
     <use xlink:href="#m652935c70d" x="906.078621" y="314.256155" style="fill: #808080; stroke: #000000"/>
    </g>
   </g>
   <g id="PathCollection_15">
    <g clip-path="url(#p558e9186b8)">
     <use xlink:href="#m2ae1ed48e9" x="906.078621" y="318.503931" style="fill: #808080; stroke: #000000"/>
    </g>
   </g>
   <g id="PathCollection_16">
    <g clip-path="url(#p558e9186b8)">
     <use xlink:href="#m382795c79c" x="973.096028" y="325.785832" style="fill: #808080; stroke: #000000"/>
    </g>
   </g>
   <g id="PathCollection_17">
    <g clip-path="url(#p558e9186b8)">
     <use xlink:href="#m652935c70d" x="973.096028" y="341.508118" style="fill: #808080; stroke: #000000"/>
    </g>
   </g>
   <g id="PathCollection_18">
    <g clip-path="url(#p558e9186b8)">
     <use xlink:href="#m2ae1ed48e9" x="973.096028" y="342.776934" style="fill: #808080; stroke: #000000"/>
    </g>
   </g>
   <g id="matplotlib.axis_6">
    <g id="xtick_10">
     <g id="line2d_33">
      <g>
       <use xlink:href="#mae6404102a" x="839.061215" y="463.645457" style="stroke: #000000; stroke-width: 0.8"/>
      </g>
     </g>
     <g id="text_34">
      <!-- Average -->
      <g transform="translate(818.528402 478.243895)scale(0.1 -0.1)">
       <use xlink:href="#DejaVuSans-41"/>
       <use xlink:href="#DejaVuSans-76" x="62.533203"/>
       <use xlink:href="#DejaVuSans-65" x="121.712891"/>
       <use xlink:href="#DejaVuSans-72" x="183.236328"/>
       <use xlink:href="#DejaVuSans-61" x="224.349609"/>
       <use xlink:href="#DejaVuSans-67" x="285.628906"/>
       <use xlink:href="#DejaVuSans-65" x="349.105469"/>
      </g>
     </g>
    </g>
    <g id="xtick_11">
     <g id="line2d_34">
      <g>
       <use xlink:href="#mae6404102a" x="906.078621" y="463.645457" style="stroke: #000000; stroke-width: 0.8"/>
      </g>
     </g>
     <g id="text_35">
      <!-- Above -->
      <g transform="translate(890.388777 478.243895)scale(0.1 -0.1)">
       <use xlink:href="#DejaVuSans-41"/>
       <use xlink:href="#DejaVuSans-62" x="68.408203"/>
       <use xlink:href="#DejaVuSans-6f" x="131.884766"/>
       <use xlink:href="#DejaVuSans-76" x="193.066406"/>
       <use xlink:href="#DejaVuSans-65" x="252.246094"/>
      </g>
      <!-- Average -->
      <g transform="translate(885.545809 489.441707)scale(0.1 -0.1)">
       <use xlink:href="#DejaVuSans-41"/>
       <use xlink:href="#DejaVuSans-76" x="62.533203"/>
       <use xlink:href="#DejaVuSans-65" x="121.712891"/>
       <use xlink:href="#DejaVuSans-72" x="183.236328"/>
       <use xlink:href="#DejaVuSans-61" x="224.349609"/>
       <use xlink:href="#DejaVuSans-67" x="285.628906"/>
       <use xlink:href="#DejaVuSans-65" x="349.105469"/>
      </g>
     </g>
    </g>
    <g id="xtick_12">
     <g id="line2d_35">
      <g>
       <use xlink:href="#mae6404102a" x="973.096028" y="463.645457" style="stroke: #000000; stroke-width: 0.8"/>
      </g>
     </g>
     <g id="text_36">
      <!-- Top -->
      <g transform="translate(964.658528 478.243895)scale(0.1 -0.1)">
       <use xlink:href="#DejaVuSans-54"/>
       <use xlink:href="#DejaVuSans-6f" x="44.083984"/>
       <use xlink:href="#DejaVuSans-70" x="105.265625"/>
      </g>
      <!-- Performer -->
      <g transform="translate(948.340559 489.441707)scale(0.1 -0.1)">
       <use xlink:href="#DejaVuSans-50"/>
       <use xlink:href="#DejaVuSans-65" x="56.677734"/>
       <use xlink:href="#DejaVuSans-72" x="118.201172"/>
       <use xlink:href="#DejaVuSans-66" x="159.314453"/>
       <use xlink:href="#DejaVuSans-6f" x="194.519531"/>
       <use xlink:href="#DejaVuSans-72" x="255.701172"/>
       <use xlink:href="#DejaVuSans-6d" x="295.064453"/>
       <use xlink:href="#DejaVuSans-65" x="392.476562"/>
       <use xlink:href="#DejaVuSans-72" x="454"/>
      </g>
     </g>
    </g>
    <g id="text_37">
     <!-- PMF -->
     <g transform="translate(895.873934 503.119832)scale(0.1 -0.1)">
      <defs>
       <path id="DejaVuSans-4d" d="M 628 4666 
L 1569 4666 
L 2759 1491 
L 3956 4666 
L 4897 4666 
L 4897 0 
L 4281 0 
L 4281 4097 
L 3078 897 
L 2444 897 
L 1241 4097 
L 1241 0 
L 628 0 
L 628 4666 
z
" transform="scale(0.015625)"/>
      </defs>
      <use xlink:href="#DejaVuSans-50"/>
      <use xlink:href="#DejaVuSans-4d" x="60.302734"/>
      <use xlink:href="#DejaVuSans-46" x="146.582031"/>
     </g>
    </g>
   </g>
   <g id="line2d_36">
    <path d="M 802.871815 314.489078 
L 1009.285427 314.489078 
" clip-path="url(#p558e9186b8)" style="fill: none; stroke-dasharray: 5.55,2.4; stroke-dashoffset: 0; stroke: #000000; stroke-width: 1.5"/>
   </g>
   <g id="patch_25">
    <path d="M 802.871815 463.645457 
L 802.871815 22.318125 
" style="fill: none; stroke: #000000; stroke-width: 0.8; stroke-linejoin: miter; stroke-linecap: square"/>
   </g>
   <g id="patch_26">
    <path d="M 1009.285427 463.645457 
L 1009.285427 22.318125 
" style="fill: none; stroke: #000000; stroke-width: 0.8; stroke-linejoin: miter; stroke-linecap: square"/>
   </g>
   <g id="patch_27">
    <path d="M 802.871815 463.645457 
L 1009.285427 463.645457 
" style="fill: none; stroke: #000000; stroke-width: 0.8; stroke-linejoin: miter; stroke-linecap: square"/>
   </g>
   <g id="patch_28">
    <path d="M 802.871815 22.318125 
L 1009.285427 22.318125 
" style="fill: none; stroke: #000000; stroke-width: 0.8; stroke-linejoin: miter; stroke-linecap: square"/>
   </g>
   <g id="text_38">
    <!-- Prevalence of Undernourishment in 2040 by Scenario and Percentile Target -->
    <g transform="translate(680.498309 16.318125)scale(0.12 -0.12)">
     <defs>
      <path id="DejaVuSans-79" d="M 2059 -325 
Q 1816 -950 1584 -1140 
Q 1353 -1331 966 -1331 
L 506 -1331 
L 506 -850 
L 844 -850 
Q 1081 -850 1212 -737 
Q 1344 -625 1503 -206 
L 1606 56 
L 191 3500 
L 800 3500 
L 1894 763 
L 2988 3500 
L 3597 3500 
L 2059 -325 
z
" transform="scale(0.015625)"/>
      <path id="DejaVuSans-53" d="M 3425 4513 
L 3425 3897 
Q 3066 4069 2747 4153 
Q 2428 4238 2131 4238 
Q 1616 4238 1336 4038 
Q 1056 3838 1056 3469 
Q 1056 3159 1242 3001 
Q 1428 2844 1947 2747 
L 2328 2669 
Q 3034 2534 3370 2195 
Q 3706 1856 3706 1288 
Q 3706 609 3251 259 
Q 2797 -91 1919 -91 
Q 1588 -91 1214 -16 
Q 841 59 441 206 
L 441 856 
Q 825 641 1194 531 
Q 1563 422 1919 422 
Q 2459 422 2753 634 
Q 3047 847 3047 1241 
Q 3047 1584 2836 1778 
Q 2625 1972 2144 2069 
L 1759 2144 
Q 1053 2284 737 2584 
Q 422 2884 422 3419 
Q 422 4038 858 4394 
Q 1294 4750 2059 4750 
Q 2388 4750 2728 4690 
Q 3069 4631 3425 4513 
z
" transform="scale(0.015625)"/>
     </defs>
     <use xlink:href="#DejaVuSans-50"/>
     <use xlink:href="#DejaVuSans-72" x="58.552734"/>
     <use xlink:href="#DejaVuSans-65" x="97.416016"/>
     <use xlink:href="#DejaVuSans-76" x="158.939453"/>
     <use xlink:href="#DejaVuSans-61" x="218.119141"/>
     <use xlink:href="#DejaVuSans-6c" x="279.398438"/>
     <use xlink:href="#DejaVuSans-65" x="307.181641"/>
     <use xlink:href="#DejaVuSans-6e" x="368.705078"/>
     <use xlink:href="#DejaVuSans-63" x="432.083984"/>
     <use xlink:href="#DejaVuSans-65" x="487.064453"/>
     <use xlink:href="#DejaVuSans-20" x="548.587891"/>
     <use xlink:href="#DejaVuSans-6f" x="580.375"/>
     <use xlink:href="#DejaVuSans-66" x="641.556641"/>
     <use xlink:href="#DejaVuSans-20" x="676.761719"/>
     <use xlink:href="#DejaVuSans-55" x="708.548828"/>
     <use xlink:href="#DejaVuSans-6e" x="781.742188"/>
     <use xlink:href="#DejaVuSans-64" x="845.121094"/>
     <use xlink:href="#DejaVuSans-65" x="908.597656"/>
     <use xlink:href="#DejaVuSans-72" x="970.121094"/>
     <use xlink:href="#DejaVuSans-6e" x="1009.484375"/>
     <use xlink:href="#DejaVuSans-6f" x="1072.863281"/>
     <use xlink:href="#DejaVuSans-75" x="1134.044922"/>
     <use xlink:href="#DejaVuSans-72" x="1197.423828"/>
     <use xlink:href="#DejaVuSans-69" x="1238.537109"/>
     <use xlink:href="#DejaVuSans-73" x="1266.320312"/>
     <use xlink:href="#DejaVuSans-68" x="1318.419922"/>
     <use xlink:href="#DejaVuSans-6d" x="1381.798828"/>
     <use xlink:href="#DejaVuSans-65" x="1479.210938"/>
     <use xlink:href="#DejaVuSans-6e" x="1540.734375"/>
     <use xlink:href="#DejaVuSans-74" x="1604.113281"/>
     <use xlink:href="#DejaVuSans-20" x="1643.322266"/>
     <use xlink:href="#DejaVuSans-69" x="1675.109375"/>
     <use xlink:href="#DejaVuSans-6e" x="1702.892578"/>
     <use xlink:href="#DejaVuSans-20" x="1766.271484"/>
     <use xlink:href="#DejaVuSans-32" x="1798.058594"/>
     <use xlink:href="#DejaVuSans-30" x="1861.681641"/>
     <use xlink:href="#DejaVuSans-34" x="1925.304688"/>
     <use xlink:href="#DejaVuSans-30" x="1988.927734"/>
     <use xlink:href="#DejaVuSans-20" x="2052.550781"/>
     <use xlink:href="#DejaVuSans-62" x="2084.337891"/>
     <use xlink:href="#DejaVuSans-79" x="2147.814453"/>
     <use xlink:href="#DejaVuSans-20" x="2206.994141"/>
     <use xlink:href="#DejaVuSans-53" x="2238.78125"/>
     <use xlink:href="#DejaVuSans-63" x="2302.257812"/>
     <use xlink:href="#DejaVuSans-65" x="2357.238281"/>
     <use xlink:href="#DejaVuSans-6e" x="2418.761719"/>
     <use xlink:href="#DejaVuSans-61" x="2482.140625"/>
     <use xlink:href="#DejaVuSans-72" x="2543.419922"/>
     <use xlink:href="#DejaVuSans-69" x="2584.533203"/>
     <use xlink:href="#DejaVuSans-6f" x="2612.316406"/>
     <use xlink:href="#DejaVuSans-20" x="2673.498047"/>
     <use xlink:href="#DejaVuSans-61" x="2705.285156"/>
     <use xlink:href="#DejaVuSans-6e" x="2766.564453"/>
     <use xlink:href="#DejaVuSans-64" x="2829.943359"/>
     <use xlink:href="#DejaVuSans-20" x="2893.419922"/>
     <use xlink:href="#DejaVuSans-50" x="2925.207031"/>
     <use xlink:href="#DejaVuSans-65" x="2981.884766"/>
     <use xlink:href="#DejaVuSans-72" x="3043.408203"/>
     <use xlink:href="#DejaVuSans-63" x="3082.271484"/>
     <use xlink:href="#DejaVuSans-65" x="3137.251953"/>
     <use xlink:href="#DejaVuSans-6e" x="3198.775391"/>
     <use xlink:href="#DejaVuSans-74" x="3262.154297"/>
     <use xlink:href="#DejaVuSans-69" x="3301.363281"/>
     <use xlink:href="#DejaVuSans-6c" x="3329.146484"/>
     <use xlink:href="#DejaVuSans-65" x="3356.929688"/>
     <use xlink:href="#DejaVuSans-20" x="3418.453125"/>
     <use xlink:href="#DejaVuSans-54" x="3450.240234"/>
     <use xlink:href="#DejaVuSans-61" x="3494.824219"/>
     <use xlink:href="#DejaVuSans-72" x="3556.103516"/>
     <use xlink:href="#DejaVuSans-67" x="3595.466797"/>
     <use xlink:href="#DejaVuSans-65" x="3658.943359"/>
     <use xlink:href="#DejaVuSans-74" x="3720.466797"/>
    </g>
   </g>
  </g>
  <g id="axes_5">
   <g id="patch_29">
    <path d="M 1018.785907 463.645457 
L 1225.19952 463.645457 
L 1225.19952 22.318125 
L 1018.785907 22.318125 
z
" style="fill: #ffffff"/>
   </g>
   <g id="patch_30">
    <path d="M 1028.168344 463.645457 
L 1081.78227 463.645457 
L 1081.78227 317.584499 
L 1028.168344 317.584499 
z
" clip-path="url(#pa7d57cd950)" style="fill: #810f7c"/>
   </g>
   <g id="patch_31">
    <path d="M 1095.185751 463.645457 
L 1148.799676 463.645457 
L 1148.799676 342.721768 
L 1095.185751 342.721768 
z
" clip-path="url(#pa7d57cd950)" style="fill: #810f7c"/>
   </g>
   <g id="patch_32">
    <path d="M 1162.203158 463.645457 
L 1215.817083 463.645457 
L 1215.817083 369.532404 
L 1162.203158 369.532404 
z
" clip-path="url(#pa7d57cd950)" style="fill: #810f7c"/>
   </g>
   <g id="PathCollection_19">
    <g clip-path="url(#pa7d57cd950)">
     <use xlink:href="#m382795c79c" x="1054.975307" y="301.567995" style="fill: #808080; stroke: #000000"/>
    </g>
   </g>
   <g id="PathCollection_20">
    <g clip-path="url(#pa7d57cd950)">
     <use xlink:href="#m652935c70d" x="1054.975307" y="318.283267" style="fill: #808080; stroke: #000000"/>
    </g>
   </g>
   <g id="PathCollection_21">
    <g clip-path="url(#pa7d57cd950)">
     <use xlink:href="#m2ae1ed48e9" x="1054.975307" y="332.902235" style="fill: #808080; stroke: #000000"/>
    </g>
   </g>
   <g id="PathCollection_22">
    <g clip-path="url(#pa7d57cd950)">
     <use xlink:href="#m382795c79c" x="1121.992714" y="319.386586" style="fill: #808080; stroke: #000000"/>
    </g>
   </g>
   <g id="PathCollection_23">
    <g clip-path="url(#pa7d57cd950)">
     <use xlink:href="#m652935c70d" x="1121.992714" y="345.81106" style="fill: #808080; stroke: #000000"/>
    </g>
   </g>
   <g id="PathCollection_24">
    <g clip-path="url(#pa7d57cd950)">
     <use xlink:href="#m2ae1ed48e9" x="1121.992714" y="362.96766" style="fill: #808080; stroke: #000000"/>
    </g>
   </g>
   <g id="PathCollection_25">
    <g clip-path="url(#pa7d57cd950)">
     <use xlink:href="#m382795c79c" x="1189.01012" y="343.052764" style="fill: #808080; stroke: #000000"/>
    </g>
   </g>
   <g id="PathCollection_26">
    <g clip-path="url(#pa7d57cd950)">
     <use xlink:href="#m652935c70d" x="1189.01012" y="377.586628" style="fill: #808080; stroke: #000000"/>
    </g>
   </g>
   <g id="PathCollection_27">
    <g clip-path="url(#pa7d57cd950)">
     <use xlink:href="#m2ae1ed48e9" x="1189.01012" y="387.95782" style="fill: #808080; stroke: #000000"/>
    </g>
   </g>
   <g id="matplotlib.axis_7">
    <g id="xtick_13">
     <g id="line2d_37">
      <g>
       <use xlink:href="#mae6404102a" x="1054.975307" y="463.645457" style="stroke: #000000; stroke-width: 0.8"/>
      </g>
     </g>
     <g id="text_39">
      <!-- Average -->
      <g transform="translate(1034.442495 478.243895)scale(0.1 -0.1)">
       <use xlink:href="#DejaVuSans-41"/>
       <use xlink:href="#DejaVuSans-76" x="62.533203"/>
       <use xlink:href="#DejaVuSans-65" x="121.712891"/>
       <use xlink:href="#DejaVuSans-72" x="183.236328"/>
       <use xlink:href="#DejaVuSans-61" x="224.349609"/>
       <use xlink:href="#DejaVuSans-67" x="285.628906"/>
       <use xlink:href="#DejaVuSans-65" x="349.105469"/>
      </g>
     </g>
    </g>
    <g id="xtick_14">
     <g id="line2d_38">
      <g>
       <use xlink:href="#mae6404102a" x="1121.992714" y="463.645457" style="stroke: #000000; stroke-width: 0.8"/>
      </g>
     </g>
     <g id="text_40">
      <!-- Above -->
      <g transform="translate(1106.30287 478.243895)scale(0.1 -0.1)">
       <use xlink:href="#DejaVuSans-41"/>
       <use xlink:href="#DejaVuSans-62" x="68.408203"/>
       <use xlink:href="#DejaVuSans-6f" x="131.884766"/>
       <use xlink:href="#DejaVuSans-76" x="193.066406"/>
       <use xlink:href="#DejaVuSans-65" x="252.246094"/>
      </g>
      <!-- Average -->
      <g transform="translate(1101.459901 489.441707)scale(0.1 -0.1)">
       <use xlink:href="#DejaVuSans-41"/>
       <use xlink:href="#DejaVuSans-76" x="62.533203"/>
       <use xlink:href="#DejaVuSans-65" x="121.712891"/>
       <use xlink:href="#DejaVuSans-72" x="183.236328"/>
       <use xlink:href="#DejaVuSans-61" x="224.349609"/>
       <use xlink:href="#DejaVuSans-67" x="285.628906"/>
       <use xlink:href="#DejaVuSans-65" x="349.105469"/>
      </g>
     </g>
    </g>
    <g id="xtick_15">
     <g id="line2d_39">
      <g>
       <use xlink:href="#mae6404102a" x="1189.01012" y="463.645457" style="stroke: #000000; stroke-width: 0.8"/>
      </g>
     </g>
     <g id="text_41">
      <!-- Top -->
      <g transform="translate(1180.57262 478.243895)scale(0.1 -0.1)">
       <use xlink:href="#DejaVuSans-54"/>
       <use xlink:href="#DejaVuSans-6f" x="44.083984"/>
       <use xlink:href="#DejaVuSans-70" x="105.265625"/>
      </g>
      <!-- Performer -->
      <g transform="translate(1164.254652 489.441707)scale(0.1 -0.1)">
       <use xlink:href="#DejaVuSans-50"/>
       <use xlink:href="#DejaVuSans-65" x="56.677734"/>
       <use xlink:href="#DejaVuSans-72" x="118.201172"/>
       <use xlink:href="#DejaVuSans-66" x="159.314453"/>
       <use xlink:href="#DejaVuSans-6f" x="194.519531"/>
       <use xlink:href="#DejaVuSans-72" x="255.701172"/>
       <use xlink:href="#DejaVuSans-6d" x="295.064453"/>
       <use xlink:href="#DejaVuSans-65" x="392.476562"/>
       <use xlink:href="#DejaVuSans-72" x="454"/>
      </g>
     </g>
    </g>
    <g id="text_42">
     <!-- RCC -->
     <g transform="translate(1111.785682 503.119832)scale(0.1 -0.1)">
      <defs>
       <path id="DejaVuSans-52" d="M 2841 2188 
Q 3044 2119 3236 1894 
Q 3428 1669 3622 1275 
L 4263 0 
L 3584 0 
L 2988 1197 
Q 2756 1666 2539 1819 
Q 2322 1972 1947 1972 
L 1259 1972 
L 1259 0 
L 628 0 
L 628 4666 
L 2053 4666 
Q 2853 4666 3247 4331 
Q 3641 3997 3641 3322 
Q 3641 2881 3436 2590 
Q 3231 2300 2841 2188 
z
M 1259 4147 
L 1259 2491 
L 2053 2491 
Q 2509 2491 2742 2702 
Q 2975 2913 2975 3322 
Q 2975 3731 2742 3939 
Q 2509 4147 2053 4147 
L 1259 4147 
z
" transform="scale(0.015625)"/>
       <path id="DejaVuSans-43" d="M 4122 4306 
L 4122 3641 
Q 3803 3938 3442 4084 
Q 3081 4231 2675 4231 
Q 1875 4231 1450 3742 
Q 1025 3253 1025 2328 
Q 1025 1406 1450 917 
Q 1875 428 2675 428 
Q 3081 428 3442 575 
Q 3803 722 4122 1019 
L 4122 359 
Q 3791 134 3420 21 
Q 3050 -91 2638 -91 
Q 1578 -91 968 557 
Q 359 1206 359 2328 
Q 359 3453 968 4101 
Q 1578 4750 2638 4750 
Q 3056 4750 3426 4639 
Q 3797 4528 4122 4306 
z
" transform="scale(0.015625)"/>
      </defs>
      <use xlink:href="#DejaVuSans-52"/>
      <use xlink:href="#DejaVuSans-43" x="64.482422"/>
      <use xlink:href="#DejaVuSans-43" x="134.306641"/>
     </g>
    </g>
   </g>
   <g id="line2d_40">
    <path d="M 1018.785907 343.279557 
L 1225.19952 343.279557 
" clip-path="url(#pa7d57cd950)" style="fill: none; stroke-dasharray: 5.55,2.4; stroke-dashoffset: 0; stroke: #000000; stroke-width: 1.5"/>
   </g>
   <g id="patch_33">
    <path d="M 1018.785907 463.645457 
L 1018.785907 22.318125 
" style="fill: none; stroke: #000000; stroke-width: 0.8; stroke-linejoin: miter; stroke-linecap: square"/>
   </g>
   <g id="patch_34">
    <path d="M 1225.19952 463.645457 
L 1225.19952 22.318125 
" style="fill: none; stroke: #000000; stroke-width: 0.8; stroke-linejoin: miter; stroke-linecap: square"/>
   </g>
   <g id="patch_35">
    <path d="M 1018.785908 463.645457 
L 1225.19952 463.645457 
" style="fill: none; stroke: #000000; stroke-width: 0.8; stroke-linejoin: miter; stroke-linecap: square"/>
   </g>
   <g id="patch_36">
    <path d="M 1018.785908 22.318125 
L 1225.19952 22.318125 
" style="fill: none; stroke: #000000; stroke-width: 0.8; stroke-linejoin: miter; stroke-linecap: square"/>
   </g>
   <g id="legend_1">
    <g id="patch_37">
     <path d="M 1060.43702 147.743125 
L 1218.19952 147.743125 
Q 1220.19952 147.743125 1220.19952 145.743125 
L 1220.19952 29.318125 
Q 1220.19952 27.318125 1218.19952 27.318125 
L 1060.43702 27.318125 
Q 1058.43702 27.318125 1058.43702 29.318125 
L 1058.43702 145.743125 
Q 1058.43702 147.743125 1060.43702 147.743125 
z
" style="fill: #ffffff; opacity: 0.8; stroke: #cccccc; stroke-linejoin: miter"/>
    </g>
    <g id="line2d_41">
     <path d="M 1062.43702 35.416562 
L 1072.43702 35.416562 
L 1082.43702 35.416562 
" style="fill: none; stroke: #bdbdbd; stroke-width: 4; stroke-linecap: square"/>
    </g>
    <g id="text_43">
     <!-- BaU -->
     <g transform="translate(1090.43702 38.916562)scale(0.1 -0.1)">
      <use xlink:href="#DejaVuSans-42"/>
      <use xlink:href="#DejaVuSans-61" x="68.603516"/>
      <use xlink:href="#DejaVuSans-55" x="129.882812"/>
     </g>
    </g>
    <g id="line2d_42">
     <path d="M 1062.43702 50.094687 
L 1072.43702 50.094687 
L 1082.43702 50.094687 
" style="fill: none; stroke: #8c96c6; stroke-width: 4; stroke-linecap: square"/>
    </g>
    <g id="text_44">
     <!-- EDF -->
     <g transform="translate(1090.43702 53.594687)scale(0.1 -0.1)">
      <use xlink:href="#DejaVuSans-45"/>
      <use xlink:href="#DejaVuSans-44" x="63.183594"/>
      <use xlink:href="#DejaVuSans-46" x="140.185547"/>
     </g>
    </g>
    <g id="line2d_43">
     <path d="M 1062.43702 64.772812 
L 1072.43702 64.772812 
L 1082.43702 64.772812 
" style="fill: none; stroke: #8856a7; stroke-width: 4; stroke-linecap: square"/>
    </g>
    <g id="text_45">
     <!-- PMF -->
     <g transform="translate(1090.43702 68.272812)scale(0.1 -0.1)">
      <use xlink:href="#DejaVuSans-50"/>
      <use xlink:href="#DejaVuSans-4d" x="60.302734"/>
      <use xlink:href="#DejaVuSans-46" x="146.582031"/>
     </g>
    </g>
    <g id="line2d_44">
     <path d="M 1062.43702 79.450937 
L 1072.43702 79.450937 
L 1082.43702 79.450937 
" style="fill: none; stroke: #810f7c; stroke-width: 4; stroke-linecap: square"/>
    </g>
    <g id="text_46">
     <!-- RCC -->
     <g transform="translate(1090.43702 82.950937)scale(0.1 -0.1)">
      <use xlink:href="#DejaVuSans-52"/>
      <use xlink:href="#DejaVuSans-43" x="64.482422"/>
      <use xlink:href="#DejaVuSans-43" x="134.306641"/>
     </g>
    </g>
    <g id="PathCollection_28">
     <g>
      <use xlink:href="#m382795c79c" x="1072.43702" y="95.004062" style="fill: #808080; stroke: #000000"/>
     </g>
    </g>
    <g id="text_47">
     <!-- Benchmark Year of: 2017 -->
     <g transform="translate(1090.43702 97.629062)scale(0.1 -0.1)">
      <defs>
       <path id="DejaVuSans-6b" d="M 581 4863 
L 1159 4863 
L 1159 1991 
L 2875 3500 
L 3609 3500 
L 1753 1863 
L 3688 0 
L 2938 0 
L 1159 1709 
L 1159 0 
L 581 0 
L 581 4863 
z
" transform="scale(0.015625)"/>
       <path id="DejaVuSans-3a" d="M 750 794 
L 1409 794 
L 1409 0 
L 750 0 
L 750 794 
z
M 750 3309 
L 1409 3309 
L 1409 2516 
L 750 2516 
L 750 3309 
z
" transform="scale(0.015625)"/>
      </defs>
      <use xlink:href="#DejaVuSans-42"/>
      <use xlink:href="#DejaVuSans-65" x="68.603516"/>
      <use xlink:href="#DejaVuSans-6e" x="130.126953"/>
      <use xlink:href="#DejaVuSans-63" x="193.505859"/>
      <use xlink:href="#DejaVuSans-68" x="248.486328"/>
      <use xlink:href="#DejaVuSans-6d" x="311.865234"/>
      <use xlink:href="#DejaVuSans-61" x="409.277344"/>
      <use xlink:href="#DejaVuSans-72" x="470.556641"/>
      <use xlink:href="#DejaVuSans-6b" x="511.669922"/>
      <use xlink:href="#DejaVuSans-20" x="569.580078"/>
      <use xlink:href="#DejaVuSans-59" x="601.367188"/>
      <use xlink:href="#DejaVuSans-65" x="649.201172"/>
      <use xlink:href="#DejaVuSans-61" x="710.724609"/>
      <use xlink:href="#DejaVuSans-72" x="772.003906"/>
      <use xlink:href="#DejaVuSans-20" x="813.117188"/>
      <use xlink:href="#DejaVuSans-6f" x="844.904297"/>
      <use xlink:href="#DejaVuSans-66" x="906.085938"/>
      <use xlink:href="#DejaVuSans-3a" x="937.666016"/>
      <use xlink:href="#DejaVuSans-20" x="971.357422"/>
      <use xlink:href="#DejaVuSans-32" x="1003.144531"/>
      <use xlink:href="#DejaVuSans-30" x="1066.767578"/>
      <use xlink:href="#DejaVuSans-31" x="1130.390625"/>
      <use xlink:href="#DejaVuSans-37" x="1194.013672"/>
     </g>
    </g>
    <g id="PathCollection_29">
     <g>
      <use xlink:href="#m652935c70d" x="1072.43702" y="109.682187" style="fill: #808080; stroke: #000000"/>
     </g>
    </g>
    <g id="text_48">
     <!-- Benchmark Year of: 2030 -->
     <g transform="translate(1090.43702 112.307187)scale(0.1 -0.1)">
      <use xlink:href="#DejaVuSans-42"/>
      <use xlink:href="#DejaVuSans-65" x="68.603516"/>
      <use xlink:href="#DejaVuSans-6e" x="130.126953"/>
      <use xlink:href="#DejaVuSans-63" x="193.505859"/>
      <use xlink:href="#DejaVuSans-68" x="248.486328"/>
      <use xlink:href="#DejaVuSans-6d" x="311.865234"/>
      <use xlink:href="#DejaVuSans-61" x="409.277344"/>
      <use xlink:href="#DejaVuSans-72" x="470.556641"/>
      <use xlink:href="#DejaVuSans-6b" x="511.669922"/>
      <use xlink:href="#DejaVuSans-20" x="569.580078"/>
      <use xlink:href="#DejaVuSans-59" x="601.367188"/>
      <use xlink:href="#DejaVuSans-65" x="649.201172"/>
      <use xlink:href="#DejaVuSans-61" x="710.724609"/>
      <use xlink:href="#DejaVuSans-72" x="772.003906"/>
      <use xlink:href="#DejaVuSans-20" x="813.117188"/>
      <use xlink:href="#DejaVuSans-6f" x="844.904297"/>
      <use xlink:href="#DejaVuSans-66" x="906.085938"/>
      <use xlink:href="#DejaVuSans-3a" x="937.666016"/>
      <use xlink:href="#DejaVuSans-20" x="971.357422"/>
      <use xlink:href="#DejaVuSans-32" x="1003.144531"/>
      <use xlink:href="#DejaVuSans-30" x="1066.767578"/>
      <use xlink:href="#DejaVuSans-33" x="1130.390625"/>
      <use xlink:href="#DejaVuSans-30" x="1194.013672"/>
     </g>
    </g>
    <g id="PathCollection_30">
     <g>
      <use xlink:href="#m2ae1ed48e9" x="1072.43702" y="124.360312" style="fill: #808080; stroke: #000000"/>
     </g>
    </g>
    <g id="text_49">
     <!-- Benchmark Year of: 2040 -->
     <g transform="translate(1090.43702 126.985312)scale(0.1 -0.1)">
      <use xlink:href="#DejaVuSans-42"/>
      <use xlink:href="#DejaVuSans-65" x="68.603516"/>
      <use xlink:href="#DejaVuSans-6e" x="130.126953"/>
      <use xlink:href="#DejaVuSans-63" x="193.505859"/>
      <use xlink:href="#DejaVuSans-68" x="248.486328"/>
      <use xlink:href="#DejaVuSans-6d" x="311.865234"/>
      <use xlink:href="#DejaVuSans-61" x="409.277344"/>
      <use xlink:href="#DejaVuSans-72" x="470.556641"/>
      <use xlink:href="#DejaVuSans-6b" x="511.669922"/>
      <use xlink:href="#DejaVuSans-20" x="569.580078"/>
      <use xlink:href="#DejaVuSans-59" x="601.367188"/>
      <use xlink:href="#DejaVuSans-65" x="649.201172"/>
      <use xlink:href="#DejaVuSans-61" x="710.724609"/>
      <use xlink:href="#DejaVuSans-72" x="772.003906"/>
      <use xlink:href="#DejaVuSans-20" x="813.117188"/>
      <use xlink:href="#DejaVuSans-6f" x="844.904297"/>
      <use xlink:href="#DejaVuSans-66" x="906.085938"/>
      <use xlink:href="#DejaVuSans-3a" x="937.666016"/>
      <use xlink:href="#DejaVuSans-20" x="971.357422"/>
      <use xlink:href="#DejaVuSans-32" x="1003.144531"/>
      <use xlink:href="#DejaVuSans-30" x="1066.767578"/>
      <use xlink:href="#DejaVuSans-34" x="1130.390625"/>
      <use xlink:href="#DejaVuSans-30" x="1194.013672"/>
     </g>
    </g>
    <g id="line2d_45">
     <path d="M 1062.43702 138.163437 
L 1072.43702 138.163437 
L 1082.43702 138.163437 
" style="fill: none; stroke-dasharray: 5.55,2.4; stroke-dashoffset: 0; stroke: #000000; stroke-width: 1.5"/>
    </g>
    <g id="text_50">
     <!-- Average Across Scenario -->
     <g transform="translate(1090.43702 141.663437)scale(0.1 -0.1)">
      <use xlink:href="#DejaVuSans-41"/>
      <use xlink:href="#DejaVuSans-76" x="62.533203"/>
      <use xlink:href="#DejaVuSans-65" x="121.712891"/>
      <use xlink:href="#DejaVuSans-72" x="183.236328"/>
      <use xlink:href="#DejaVuSans-61" x="224.349609"/>
      <use xlink:href="#DejaVuSans-67" x="285.628906"/>
      <use xlink:href="#DejaVuSans-65" x="349.105469"/>
      <use xlink:href="#DejaVuSans-20" x="410.628906"/>
      <use xlink:href="#DejaVuSans-41" x="442.416016"/>
      <use xlink:href="#DejaVuSans-63" x="509.074219"/>
      <use xlink:href="#DejaVuSans-72" x="564.054688"/>
      <use xlink:href="#DejaVuSans-6f" x="602.917969"/>
      <use xlink:href="#DejaVuSans-73" x="664.099609"/>
      <use xlink:href="#DejaVuSans-73" x="716.199219"/>
      <use xlink:href="#DejaVuSans-20" x="768.298828"/>
      <use xlink:href="#DejaVuSans-53" x="800.085938"/>
      <use xlink:href="#DejaVuSans-63" x="863.5625"/>
      <use xlink:href="#DejaVuSans-65" x="918.542969"/>
      <use xlink:href="#DejaVuSans-6e" x="980.066406"/>
      <use xlink:href="#DejaVuSans-61" x="1043.445312"/>
      <use xlink:href="#DejaVuSans-72" x="1104.724609"/>
      <use xlink:href="#DejaVuSans-69" x="1145.837891"/>
      <use xlink:href="#DejaVuSans-6f" x="1173.621094"/>
     </g>
    </g>
   </g>
  </g>
 </g>
 <defs>
  <clipPath id="p45b133d250">
   <rect x="43.742188" y="22.318125" width="412.827225" height="441.327333"/>
  </clipPath>
  <clipPath id="p97279595c0">
   <rect x="508.652705" y="22.318125" width="68.804537" height="441.327333"/>
  </clipPath>
  <clipPath id="pa10d3c3f7f">
   <rect x="586.957723" y="22.318125" width="206.413612" height="441.327333"/>
  </clipPath>
  <clipPath id="p558e9186b8">
   <rect x="802.871815" y="22.318125" width="206.413612" height="441.327333"/>
  </clipPath>
  <clipPath id="pa7d57cd950">
   <rect x="1018.785907" y="22.318125" width="206.413612" height="441.327333"/>
  </clipPath>
 </defs>
</svg>
